<svg width="21" height="18" viewBox="0 0 21 18" fill="none" xmlns="http://www.w3.org/2000/svg">
<path fill-rule="evenodd" clip-rule="evenodd" d="M20.1509 12.3947L17.3799 5.32756C17.8899 4.99414 18.2324 4.38447 18.2324 3.68891C18.2324 2.63667 17.4492 1.78065 16.4865 1.78065C16.1227 1.78065 15.8277 2.10311 15.8277 2.50072C15.8277 2.89833 16.1227 3.22079 16.4865 3.22079C16.7227 3.22079 16.9147 3.43086 16.9147 3.68884C16.9147 3.94689 16.7226 4.15689 16.4865 4.15689H11.2679V1.3126C11.2679 0.914989 10.973 0.592529 10.6091 0.592529C10.2453 0.592529 9.95034 0.914989 9.95034 1.3126V4.15703H4.73176C4.4956 4.15703 4.30354 3.94697 4.30354 3.68899C4.30354 3.43093 4.49566 3.22094 4.73176 3.22094C5.09553 3.22094 5.39054 2.89848 5.39054 2.50087C5.39054 2.10326 5.09553 1.7808 4.73176 1.7808C3.76906 1.7808 2.9859 2.63681 2.9859 3.68906C2.9859 4.38462 3.32832 4.99421 3.83836 5.32771L1.06738 12.3947C0.801589 12.4876 0.609131 12.7594 0.609131 13.0805C0.609131 15.5685 2.45849 17.5925 4.73176 17.5925C7.00496 17.5925 8.85438 15.5685 8.85438 13.0805C8.85438 12.7594 8.66193 12.4875 8.39613 12.3947L5.73088 5.59718H9.95034L10.6091 6.44581L11.2679 5.59718H15.4874L12.8221 12.3947C12.5564 12.4876 12.3639 12.7594 12.3639 13.0805C12.3639 15.5685 14.2133 17.5925 16.4865 17.5925C18.7598 17.5925 20.6091 15.5685 20.6091 13.0805C20.6091 12.7594 20.4167 12.4876 20.1509 12.3947ZM6.9492 12.3604L4.73176 6.70514L2.51432 12.3604H6.9492ZM2.00462 13.8007C2.30125 15.1482 3.41149 16.1524 4.73176 16.1524C6.05196 16.1524 7.16219 15.1482 7.4589 13.8007H2.00462ZM14.2691 12.3604H18.7039L16.4866 6.70514L14.2691 12.3604ZM13.7594 13.8007C14.056 15.1482 15.1663 16.1524 16.4865 16.1524C17.8068 16.1524 18.917 15.1482 19.2136 13.8007H13.7594Z" fill="black"/>
</svg>
