<svg width="21" height="21" viewBox="0 0 21 21" fill="none" xmlns="http://www.w3.org/2000/svg">
<g clip-path="url(#clip0_192_890)">
<path d="M16.5973 10.5295L14.6988 9.8381C14.6402 9.8147 14.5699 9.80298 14.4997 9.80298H2.33557C2.00741 9.80298 1.74963 10.0608 1.74963 10.3889V18.6311C1.74963 19.6037 2.53475 20.3889 3.50745 20.3889H15.2262C16.1989 20.3889 16.984 19.6037 16.984 18.6311V11.0803C16.984 10.8342 16.8317 10.6116 16.5973 10.5295Z" fill="#1AB8FC"/>
<path d="M16.984 11.0803V18.6311C16.984 19.6037 16.1989 20.3889 15.2262 20.3889H9.36682V9.80298H14.4996C14.57 9.80298 14.6403 9.8147 14.6988 9.8381L16.5973 10.5295C16.8316 10.6116 16.984 10.8342 16.984 11.0803Z" fill="#0099DB"/>
<path d="M16.7732 4.20876C16.574 3.40016 15.9763 2.76739 15.1677 2.50954C14.3708 2.2634 13.5153 2.43923 12.8942 3.00169L11.5348 4.19704L11.2653 2.40411C11.1364 1.58379 10.6091 0.892347 9.82396 0.564261C9.67161 0.505628 9.51927 0.458753 9.36693 0.435315C8.72239 0.306409 8.05442 0.447034 7.51532 0.845511C6.80047 1.36114 6.43723 2.22833 6.55438 3.09548C6.68333 3.96267 7.26926 4.70095 8.10126 4.99392L9.36693 5.45095L10.9255 6.02517C10.9372 6.02517 10.9372 6.02517 10.9372 6.02517L13.6443 7.02123C13.9138 7.11502 14.195 7.16193 14.4646 7.16193C15.0389 7.16193 15.6013 6.95091 16.0466 6.55251C16.7028 5.96658 16.9841 5.06419 16.7732 4.20876Z" fill="#FE9923"/>
<path d="M16.0465 6.55254C15.6012 6.95094 15.0387 7.16196 14.4644 7.16196C14.1949 7.16196 13.9137 7.11504 13.6442 7.02125L10.9371 6.0252C10.9371 6.0252 10.9371 6.0252 10.9254 6.0252L9.36682 5.45098V0.435303C9.51917 0.458779 9.67151 0.505615 9.82385 0.564248C10.609 0.892335 11.1364 1.58378 11.2652 2.4041L11.5347 4.19703L12.8941 3.00168C13.5152 2.43921 14.3707 2.26339 15.1676 2.50953C15.9762 2.76738 16.5738 3.40015 16.773 4.20875C16.984 5.06422 16.7028 5.9666 16.0465 6.55254Z" fill="#FE8821"/>
<path d="M18.9879 9.5333L18.191 11.7364C18.0972 11.9708 17.8745 12.1114 17.6402 12.1114C17.5699 12.1114 17.4995 12.0997 17.441 12.0763L11.3823 9.87318L10.8316 8.05678L9.36676 8.38486L8.07773 8.67783L2.01909 6.47471C1.7144 6.35756 1.5621 6.01768 1.66753 5.72471L2.47612 3.52166C2.62846 3.07635 2.95663 2.72471 3.37851 2.52553C3.80038 2.32635 4.28081 2.30287 4.72613 2.46693L9.3668 4.15443L9.68324 4.27158C9.68324 4.27158 10.9488 6.5685 10.984 6.5685C11.0075 6.5685 11.5114 6.28725 12.0036 6.01768C12.4956 5.74814 12.9879 5.46693 12.9879 5.46693L17.9331 7.27158C18.3785 7.43564 18.73 7.76381 18.9292 8.18568C19.1285 8.60752 19.1519 9.08803 18.9879 9.5333Z" fill="#1AB8FC"/>
<path d="M18.9879 9.53341L18.1911 11.7365C18.0973 11.9709 17.8746 12.1115 17.6402 12.1115C17.5699 12.1115 17.4996 12.0998 17.4411 12.0764L11.3824 9.87329L10.8317 8.05688L9.36682 8.38497V4.15454L9.68327 4.27169C9.68327 4.27169 10.9489 6.5686 10.9841 6.5686C11.0075 6.5686 11.5114 6.28735 12.0036 6.01778C12.4957 5.74825 12.9879 5.46704 12.9879 5.46704L17.9332 7.27169C18.3785 7.43575 18.7301 7.76392 18.9293 8.18579C19.1286 8.60763 19.152 9.08813 18.9879 9.53341Z" fill="#0099DB"/>
<path d="M7.60901 9.80298V20.3889H11.1246V9.80298H7.60901Z" fill="#FCBF29"/>
<path d="M9.68323 4.27173L9.36679 5.13892L8.07776 8.67803L9.36679 9.14682L10.8316 9.67416L11.3824 9.87334L12.9879 5.46708L9.68323 4.27173Z" fill="#FCBF29"/>
<path d="M11.1249 9.80298H9.36707V20.3889H11.1249V9.80298Z" fill="#FE9923"/>
<path d="M12.9879 5.46708L11.3824 9.87334L10.8317 9.67412L9.36682 9.14678V5.13892L9.68323 4.27173L12.9879 5.46708Z" fill="#FE9923"/>
</g>
<defs>
<clipPath id="clip0_192_890">
<rect width="20" height="20" fill="white" transform="translate(0.365479 0.388916)"/>
</clipPath>
</defs>
</svg>
