<svg width="21" height="18" viewBox="0 0 21 18" fill="none" xmlns="http://www.w3.org/2000/svg">
<path d="M19.1917 1.75532C18.2467 0.851338 16.941 0.399536 15.2742 0.399536C14.8129 0.399536 14.3421 0.477887 13.8623 0.634513C13.3823 0.791253 12.9358 1.00272 12.5232 1.26875C12.1101 1.53471 11.7551 1.78447 11.4573 2.01764C11.1598 2.2509 10.8769 2.49878 10.6091 2.7611C10.3412 2.49878 10.0585 2.2509 9.76093 2.01764C9.46322 1.78447 9.10803 1.53486 8.695 1.26875C8.28204 1.0026 7.83558 0.791292 7.3557 0.634513C6.87586 0.477926 6.40516 0.399536 5.94389 0.399536C4.27716 0.399536 2.97144 0.851452 2.02653 1.75532C1.08162 2.65912 0.609131 3.91274 0.609131 5.51629C0.609131 6.00466 0.696695 6.50778 0.871471 7.02503C1.04625 7.54254 1.24542 7.98358 1.46859 8.34796C1.69172 8.71229 1.94475 9.06759 2.2275 9.41385C2.51025 9.76008 2.71688 9.99869 2.84694 10.1299C2.97711 10.2611 3.07945 10.3559 3.15384 10.4143L10.118 16.9962C10.252 17.1274 10.4157 17.1932 10.6091 17.1932C10.8025 17.1932 10.9663 17.1274 11.1002 16.9962L18.0533 10.4359C19.7572 8.76706 20.6091 7.12704 20.6091 5.51614C20.6091 3.91247 20.1367 2.65896 19.1917 1.75532ZM17.0823 9.40838L10.6091 15.5201L4.1249 9.39735C2.7335 8.03463 2.03791 6.74069 2.03791 5.51614C2.03791 4.92582 2.11789 4.40459 2.27777 3.95279C2.43777 3.50091 2.64237 3.14182 2.89162 2.87579C3.1409 2.60968 3.44405 2.39301 3.80119 2.22524C4.15852 2.05762 4.50819 1.94461 4.85039 1.88633C5.1926 1.82812 5.55712 1.79898 5.94408 1.79898C6.33093 1.79898 6.74768 1.89181 7.1941 2.07773C7.64044 2.26357 8.05152 2.49683 8.42722 2.77741C8.80301 3.05819 9.1248 3.32055 9.39277 3.56464C9.66059 3.80896 9.88372 4.03294 10.0623 4.23705C10.1962 4.39747 10.3786 4.47766 10.6092 4.47766C10.8398 4.47766 11.022 4.39747 11.1561 4.23705C11.3346 4.03294 11.5579 3.80884 11.8257 3.56464C12.0936 3.32055 12.4154 3.0583 12.791 2.77741C13.1668 2.49683 13.5779 2.26357 14.0245 2.07773C14.4707 1.89184 14.8876 1.79898 15.2745 1.79898C15.6614 1.79898 16.0258 1.82812 16.3681 1.88633C16.7105 1.94458 17.0601 2.05762 17.4173 2.22524C17.7745 2.39297 18.0777 2.60979 18.3269 2.87579C18.5761 3.14182 18.7808 3.50091 18.9408 3.95279C19.1005 4.40459 19.1805 4.92582 19.1805 5.51614C19.1804 6.74069 18.4812 8.03823 17.0823 9.40838Z" fill="black"/>
</svg>
