<svg width="21" height="21" viewBox="0 0 21 21" fill="none" xmlns="http://www.w3.org/2000/svg">
<path fill-rule="evenodd" clip-rule="evenodd" d="M1.14378 0.317993L3.28295 0.325493C3.6119 0.312461 3.94135 0.323044 4.26878 0.35716C4.35997 0.385449 4.4439 0.433283 4.51471 0.497329C4.58552 0.561375 4.64151 0.640091 4.67878 0.727993C4.85795 1.13299 5.26962 3.81133 5.45878 3.85216H16.8755L18.9588 3.85716C19.2704 3.82625 19.5848 3.84113 19.8921 3.90133C20.0376 3.95359 20.1627 4.05064 20.2496 4.17851C20.3364 4.30638 20.3805 4.4585 20.3755 4.61299C20.3104 4.92004 20.2097 5.21844 20.0755 5.50216L19.6296 6.73466C19.1571 7.93466 18.7963 9.15133 18.3055 10.3663L18.0238 11.0238C17.8571 11.5572 17.4546 13.0363 16.928 13.1305L8.12545 13.1388C6.76795 13.2788 5.25878 12.7563 5.09712 14.0963C5.06597 14.3485 5.12734 14.6035 5.26986 14.8139C5.41237 15.0243 5.62635 15.1759 5.87212 15.2405C6.63422 15.3199 7.40166 15.335 8.16628 15.2855H14.8696H15.7705C16.5396 15.2855 17.1871 15.2472 17.3005 15.8955C17.3164 16.0218 17.2985 16.1501 17.2486 16.2673C17.1987 16.3844 17.1185 16.4862 17.0163 16.5622C16.8833 16.6641 16.7227 16.7237 16.5555 16.733L9.85212 16.728L6.78045 16.723C6.40086 16.7245 6.02145 16.7061 5.64378 16.668C5.2232 16.5796 4.83252 16.3842 4.50946 16.1007C4.1864 15.8173 3.94187 15.4553 3.79947 15.0498C3.65707 14.6443 3.62161 14.209 3.69652 13.7858C3.77143 13.3626 3.95418 12.9658 4.22712 12.6338C4.49173 12.3395 4.81023 12.0985 5.16545 11.9238C5.31582 11.8939 5.46062 11.8408 5.59462 11.7663L5.60795 11.748L5.61878 11.7213C5.63077 11.5121 5.58736 11.3034 5.49295 11.1163L5.06545 9.09133L3.92295 4.08383L3.55878 2.34049L3.41962 1.81799C3.25878 1.56299 1.36128 1.78633 0.892115 1.68799C0.766014 1.65116 0.652411 1.5805 0.563635 1.48366C0.474859 1.38683 0.414302 1.26753 0.388539 1.13871C0.362775 1.00989 0.372788 0.876476 0.417491 0.752946C0.462195 0.629416 0.53988 0.520491 0.642115 0.437993C0.799621 0.364822 0.970214 0.324016 1.14378 0.317993V0.317993ZM7.61128 5.28633C6.99092 5.26874 6.37007 5.28376 5.75128 5.33133C5.81522 5.79949 5.90846 6.26317 6.03045 6.71966L6.49128 8.93133L6.92545 10.7172C6.9705 11.045 7.05126 11.3669 7.16628 11.6772C7.45033 11.7492 7.74668 11.7583 8.03462 11.7038L10.9513 11.7088L15.0605 11.7038C15.4259 11.7564 15.7971 11.7547 16.1621 11.6988L16.218 11.6597C16.449 11.209 16.6287 10.7338 16.7538 10.243C17.1921 9.12383 17.5955 7.95216 18.0346 6.80299L18.568 5.42716C18.5716 5.40983 18.5711 5.39187 18.5663 5.37481C18.5615 5.35775 18.5527 5.34209 18.5406 5.32916C18.5285 5.31624 18.5135 5.30643 18.4967 5.30056C18.48 5.2947 18.4622 5.29296 18.4446 5.29549H15.998L7.61128 5.28633ZM14.478 18.173C14.7612 18.1492 15.0422 18.239 15.2593 18.4224C15.4764 18.6059 15.6117 18.8681 15.6355 19.1513C15.6592 19.4346 15.5695 19.7156 15.386 19.9327C15.2025 20.1498 14.9403 20.2851 14.6571 20.3088C14.4105 20.3342 14.1627 20.2743 13.955 20.1391C13.7473 20.0039 13.5922 19.8015 13.5156 19.5657C13.4391 19.33 13.4457 19.0751 13.5344 18.8436C13.6231 18.6121 13.7885 18.4181 14.003 18.2938C14.1553 18.233 14.315 18.1923 14.478 18.173ZM6.54212 18.173C6.82656 18.1663 7.10203 18.2728 7.30793 18.4692C7.51383 18.6655 7.63329 18.9356 7.64003 19.2201C7.64677 19.5045 7.54024 19.78 7.34388 19.9859C7.14751 20.1918 6.87739 20.3113 6.59295 20.318C6.35309 20.3281 6.11666 20.2583 5.92079 20.1195C5.72491 19.9807 5.58069 19.7808 5.51078 19.5511C5.44087 19.3214 5.44923 19.0751 5.53454 18.8507C5.61985 18.6263 5.77729 18.4365 5.98212 18.3113C6.16002 18.2355 6.34924 18.1896 6.54212 18.1755V18.173Z" fill="white"/>
</svg>
