<svg width="21" height="21" viewBox="0 0 21 21" fill="none" xmlns="http://www.w3.org/2000/svg">
<path fill-rule="evenodd" clip-rule="evenodd" d="M1.26442 0.544556L3.39027 0.552056C3.71716 0.539023 4.04457 0.549606 4.36996 0.583722C4.46058 0.612011 4.54398 0.659845 4.61435 0.723891C4.68472 0.787937 4.74037 0.866654 4.77741 0.954556C4.95546 1.35956 5.36456 4.03789 5.55255 4.07872H16.8981L18.9685 4.08372C19.2781 4.05281 19.5906 4.06769 19.896 4.12789C20.0406 4.18015 20.1649 4.2772 20.2513 4.40507C20.3376 4.53295 20.3813 4.68506 20.3763 4.83956C20.3116 5.1466 20.2116 5.445 20.0782 5.72872L19.6351 6.96122C19.1656 8.16122 18.807 9.37789 18.3192 10.5929L18.0393 11.2504C17.8737 11.7837 17.4737 13.2629 16.9503 13.3571L8.20261 13.3654C6.85356 13.5054 5.3538 12.9829 5.19314 14.3229C5.16218 14.5751 5.22317 14.83 5.3648 15.0404C5.50643 15.2508 5.71908 15.4024 5.96331 15.4671C6.72066 15.5465 7.48332 15.5616 8.24319 15.5121H14.9048H15.8C16.5644 15.5121 17.2078 15.4737 17.3205 16.1221C17.3364 16.2484 17.3186 16.3767 17.269 16.4939C17.2193 16.611 17.1397 16.7128 17.0381 16.7887C16.906 16.8907 16.7464 16.9502 16.5801 16.9596L9.91853 16.9546L6.86599 16.9496C6.48876 16.951 6.11172 16.9327 5.7364 16.8946C5.31844 16.8061 4.93019 16.6107 4.60914 16.3273C4.28809 16.0438 4.04508 15.6819 3.90357 15.2764C3.76205 14.8709 3.72682 14.4355 3.80126 14.0123C3.8757 13.5891 4.05731 13.1924 4.32855 12.8604C4.59151 12.566 4.90804 12.325 5.26104 12.1504C5.41048 12.1205 5.55437 12.0674 5.68754 11.9929L5.70079 11.9746L5.71155 11.9479C5.72346 11.7387 5.68033 11.53 5.5865 11.3429L5.16167 9.31789L4.02628 4.31039L3.66438 2.56706L3.52608 2.04456C3.36625 1.78956 1.48057 2.01289 1.01432 1.91456C0.889004 1.87773 0.776108 1.80706 0.687884 1.71022C0.599661 1.61339 0.539482 1.49409 0.513879 1.36527C0.488276 1.23645 0.498227 1.10304 0.542651 0.979508C0.587076 0.855979 0.664278 0.747053 0.765877 0.664556C0.922402 0.591384 1.09193 0.550578 1.26442 0.544556V0.544556ZM7.69165 5.51289C7.07515 5.4953 6.45816 5.51032 5.84323 5.55789C5.90677 6.02605 5.99943 6.48974 6.12066 6.94622L6.57862 9.15789L7.01008 10.9437C7.05486 11.2715 7.13511 11.5935 7.24942 11.9037C7.5317 11.9757 7.8262 11.9849 8.11234 11.9304L11.0108 11.9354L15.0944 11.9304C15.4576 11.983 15.8265 11.9813 16.1892 11.9254L16.2447 11.8862C16.4743 11.4355 16.6529 10.9603 16.7772 10.4696C17.2128 9.35039 17.6136 8.17872 18.0501 7.02956L18.5801 5.65372C18.5837 5.63639 18.5832 5.61844 18.5784 5.60138C18.5737 5.58431 18.565 5.56865 18.5529 5.55573C18.5409 5.5428 18.5259 5.53299 18.5093 5.52713C18.4927 5.52126 18.4749 5.51952 18.4575 5.52206H16.0261L7.69165 5.51289ZM14.5156 18.3996C14.797 18.3758 15.0763 18.4655 15.2921 18.649C15.5078 18.8325 15.6422 19.0947 15.6658 19.3779C15.6895 19.6611 15.6003 19.9422 15.418 20.1593C15.2356 20.3763 14.9751 20.5116 14.6936 20.5354C14.4486 20.5608 14.2023 20.5009 13.9958 20.3657C13.7894 20.2304 13.6353 20.028 13.5592 19.7923C13.4832 19.5565 13.4898 19.3016 13.5779 19.0702C13.666 18.8387 13.8304 18.6446 14.0435 18.5204C14.1949 18.4595 14.3536 18.4189 14.5156 18.3996ZM6.62914 18.3996C6.91181 18.3928 7.18557 18.4993 7.39018 18.6957C7.5948 18.8921 7.71352 19.1622 7.72022 19.4466C7.72692 19.7311 7.62105 20.0066 7.42591 20.2125C7.23076 20.4184 6.96233 20.5378 6.67965 20.5446C6.44129 20.5547 6.20633 20.4849 6.01168 20.3461C5.81702 20.2073 5.6737 20.0073 5.60423 19.7777C5.53475 19.548 5.54305 19.3016 5.62784 19.0772C5.71262 18.8528 5.86907 18.6631 6.07262 18.5379C6.24942 18.4621 6.43746 18.4162 6.62914 18.4021V18.3996Z" fill="black"/>
</svg>
