<svg width="21" height="21" viewBox="0 0 21 21" fill="none" xmlns="http://www.w3.org/2000/svg">
<g clip-path="url(#clip0_192_909)">
<path d="M10.6091 0.185181C5.08628 0.185181 0.609131 4.66233 0.609131 10.1852C0.609131 15.708 5.08628 20.1851 10.6091 20.1851C16.1319 20.1851 20.6091 15.708 20.6091 10.1852C20.6032 4.6648 16.1295 0.191082 10.6091 0.185181ZM10.6091 18.7566C5.87524 18.7566 2.03769 14.919 2.03769 10.1852C2.03769 5.45129 5.87524 1.61374 10.6091 1.61374C15.343 1.61374 19.1805 5.45129 19.1805 10.1852C19.1754 14.9169 15.3409 18.7515 10.6091 18.7566Z" fill="black"/>
<path d="M14.8205 9.86648C14.7513 9.72761 14.6387 9.61503 14.4998 9.5458L8.78555 6.68865C8.43265 6.51232 8.00366 6.65542 7.82729 7.00832C7.77769 7.10755 7.75191 7.21699 7.75195 7.32795V13.0423C7.75179 13.4368 8.07142 13.7567 8.46592 13.7569C8.57687 13.7569 8.68632 13.7311 8.78555 13.6816L14.4998 10.8244C14.8529 10.6485 14.9965 10.2195 14.8205 9.86648ZM9.18055 11.8865V8.48366L12.5834 10.1851L9.18055 11.8865Z" fill="black"/>
</g>
<defs>
<clipPath id="clip0_192_909">
<rect width="20" height="20" fill="white" transform="translate(0.609131 0.185181)"/>
</clipPath>
</defs>
</svg>
