<svg width="30" height="30" viewBox="0 0 30 30" fill="none" xmlns="http://www.w3.org/2000/svg">
<g clip-path="url(#clip0_252_39)">
<path d="M29.5545 17.632L26.1326 10.3025L27.6097 10.7262C27.9341 10.8193 28.2726 10.6319 28.3655 10.3073C28.4586 9.98287 28.2712 9.64461 27.9468 9.55151L17.6759 6.6041C17.678 6.56018 17.6792 6.51625 17.6792 6.47209C17.6794 5.2525 16.8561 4.18664 15.6759 3.87941C14.4957 3.57195 13.257 4.1007 12.6624 5.16537L2.39049 2.21819C2.06608 2.1251 1.72758 2.31272 1.63448 2.63714C1.54162 2.96155 1.72901 3.29981 2.05342 3.39291L4.08059 3.97466L0.409396 11.8379C0.164475 11.9236 0.000239036 12.1547 3.21511e-07 12.4144C-0.000715825 14.3984 1.19501 16.1868 3.02857 16.9443C4.86214 17.7019 6.97166 17.2789 8.37148 15.8732C9.30414 14.9639 9.83098 13.7171 9.83337 12.4144C9.83337 12.1408 9.65123 11.9007 9.38793 11.8265L5.97598 4.51869L12.3244 6.34008C12.3222 6.384 12.321 6.42793 12.321 6.47233C12.3229 7.71579 13.1787 8.79502 14.389 9.08005V23.9401C12.2929 23.9401 10.5306 23.9082 10.2335 23.9694C9.09932 24.2081 8.28507 25.2055 8.27791 26.3647V27.2202C8.28817 27.5652 8.56818 27.8411 8.91336 27.8461H21.0869C21.432 27.8411 21.712 27.5652 21.7223 27.2202V26.3647C21.7152 25.2055 20.9009 24.2081 19.7668 23.9694C19.5612 23.9082 17.6174 23.9401 15.6112 23.9401V9.08005C16.3436 8.90698 16.9697 8.4348 17.3378 7.77858L24.2548 9.76349L20.576 17.6435C20.3308 17.7292 20.1666 17.9602 20.1664 18.2197C20.1659 20.2037 21.3616 21.9921 23.1952 22.7496C25.0287 23.5072 27.138 23.0845 28.5379 21.6787C29.4705 20.7692 29.9976 19.5224 30 18.2197C29.9997 17.9461 29.8178 17.7062 29.5545 17.632ZM4.90129 5.07632L8.02821 11.7739H1.7746L4.90129 5.07632ZM4.90129 16.0639C3.10138 16.0744 1.56191 14.7729 1.27307 12.9962H8.55744C8.2464 14.7715 6.70382 16.066 4.90129 16.0639ZM20.5001 26.3647V26.6239H9.50012V26.3647C9.50012 25.6908 10.073 25.1572 10.7467 25.1572H19.2535C19.9272 25.1572 20.5001 25.6908 20.5001 26.3647ZM15.0001 7.92897C14.3787 7.92944 13.8254 7.53604 13.6218 6.94904C13.4181 6.36204 13.6089 5.71059 14.0968 5.32602C14.585 4.94145 15.2632 4.90851 15.7862 5.24414C16.3092 5.57954 16.562 6.2095 16.4162 6.81345C16.4006 6.85212 16.3892 6.89199 16.3818 6.93281C16.1829 7.52721 15.6267 7.92825 15.0001 7.92897ZM28.1948 17.5795H21.9412L25.0679 10.8819L28.1948 17.5795ZM25.0679 21.8694C23.268 21.8799 21.7285 20.5785 21.4397 18.8017H28.7241C28.413 20.577 26.8704 21.8716 25.0679 21.8694Z" fill="#33485D"/>
</g>
<defs>
<clipPath id="clip0_252_39">
<rect width="30" height="30" fill="white"/>
</clipPath>
</defs>
</svg>
