<svg width="34" height="34" viewBox="0 0 34 34" fill="none" xmlns="http://www.w3.org/2000/svg">
<path fill-rule="evenodd" clip-rule="evenodd" d="M12.1663 13.4034C16.2433 13.4034 19.562 16.7221 19.562 20.7991C19.562 24.8761 16.2433 28.1948 12.1663 28.1948C8.08933 28.1948 4.77062 24.8761 4.77062 20.7991C4.77062 16.7221 8.08933 13.4034 12.1663 13.4034ZM12.1663 12.2676C16.8706 12.2676 20.6979 16.0948 20.6979 20.7991C20.6979 25.5034 16.8706 29.3307 12.1663 29.3307C7.46202 29.3307 3.63477 25.5034 3.63477 20.7991C3.63477 16.0948 7.46202 12.2676 12.1663 12.2676Z" fill="#33485D"/>
<path fill-rule="evenodd" clip-rule="evenodd" d="M10.6619 16.4322C13.0744 16.4322 15.0388 18.3966 15.0388 20.8091C15.0388 23.2215 13.0744 25.1859 10.6619 25.1859C8.24945 25.1859 6.28509 23.2215 6.28509 20.8091C6.28509 18.3966 8.24945 16.4322 10.6619 16.4322ZM10.6619 15.2964C13.7017 15.2964 16.1746 17.7693 16.1746 20.8091C16.1746 23.8489 13.7017 26.3218 10.6619 26.3218C7.62213 26.3218 5.14923 23.8489 5.14923 20.8091C5.14923 17.7693 7.62213 15.2964 10.6619 15.2964Z" fill="#E67861"/>
<path fill-rule="evenodd" clip-rule="evenodd" d="M12.5392 8.85478C12.2856 9.03926 12.2295 9.39446 12.414 9.64812L15.8802 14.4142L17.8825 15.5702C21.7306 17.7919 23.2515 22.198 21.0813 25.9569C18.9112 29.7158 14.3349 30.6016 10.4868 28.3799L8.46711 27.2139C8.19547 27.0571 7.84813 27.1501 7.6913 27.4218C7.53447 27.6934 7.62754 28.0407 7.89918 28.1976L9.91884 29.3636C14.2188 31.8462 19.5309 30.9141 22.065 26.5248C24.5991 22.1356 22.7504 17.0691 18.4504 14.5865L16.657 13.5511L13.3326 8.98005C13.1481 8.72638 12.7929 8.6703 12.5392 8.85478Z" fill="#33485D"/>
<path fill-rule="evenodd" clip-rule="evenodd" d="M13.5589 2.2394C13.5082 2.23852 13.4593 2.25803 13.423 2.29355L9.94031 5.71058C9.89308 5.75691 9.87347 5.82453 9.88858 5.88894L11.23 11.6076C11.3016 11.913 11.1121 12.2186 10.8068 12.2902C10.5014 12.3619 10.1958 12.1724 10.1242 11.867L8.78274 6.14834C8.67698 5.69748 8.81426 5.22412 9.14482 4.89979L12.6276 1.48277C12.881 1.2341 13.2237 1.09754 13.5787 1.10372L21.5005 1.24149C22.0036 1.25024 22.4584 1.54317 22.6743 1.99764L26.2621 9.54677L25.3347 10.6802C28.6146 14.0726 30.4088 17.5589 30.1751 21.6892C29.7884 28.5221 24.7229 32.5709 19.0754 33.1828C13.4278 33.7947 7.15458 30.9855 4.24799 24.1511C4.12524 23.8625 4.25971 23.529 4.54835 23.4062C4.83699 23.2835 5.17049 23.4179 5.29325 23.7066C7.99022 30.0481 13.7672 32.6154 18.9531 32.0535C24.1391 31.4917 28.6906 27.8167 29.041 21.625C29.2581 17.7898 27.5532 14.499 24.1708 11.1166L19.0595 6.00527C18.8377 5.78348 18.8377 5.42389 19.0595 5.2021C19.2812 4.98031 19.6408 4.98031 19.8626 5.2021L24.5302 9.86971L24.9273 9.38442L21.6485 2.48519C21.6176 2.42027 21.5526 2.37842 21.4808 2.37717L13.5589 2.2394Z" fill="#33485D"/>
<path fill-rule="evenodd" clip-rule="evenodd" d="M13.8955 6.58438C13.4819 6.43708 13.2646 5.97936 13.4119 5.56573C13.5591 5.15211 14.0169 4.93478 14.4305 5.08208C14.8441 5.22938 15.0614 5.6871 14.9141 6.10072C14.7669 6.51435 14.3091 6.73167 13.8955 6.58438ZM12.3418 5.18468C11.9841 6.18927 12.5099 7.29666 13.5144 7.65441C14.519 8.01216 15.6264 7.48636 15.9842 6.48178C16.3419 5.47719 15.8161 4.36979 14.8115 4.01205C13.807 3.6543 12.6996 4.18009 12.3418 5.18468Z" fill="#E67861"/>
</svg>
