<svg width="34" height="34" viewBox="0 0 34 34" fill="none" xmlns="http://www.w3.org/2000/svg">
<g clip-path="url(#clip0_424_887)">
<path fill-rule="evenodd" clip-rule="evenodd" d="M20.489 8.69044C21.0083 8.10499 21.9192 8.09469 22.4516 8.66825L27.9626 14.6052C28.0082 14.6543 28.1085 14.7653 28.1659 14.9287C28.264 15.2079 28.2669 15.5906 28.2387 15.892C28.2234 16.0559 28.1962 16.2256 28.1552 16.3832C28.1164 16.5322 28.0556 16.7083 27.9548 16.8585C27.9 16.9401 27.8394 17.002 27.8066 17.035C27.7953 17.0464 27.7888 17.0529 27.7835 17.0581C27.7777 17.0639 27.7734 17.0682 27.7657 17.076C27.7611 17.0807 27.7579 17.0841 27.7556 17.0866C27.7545 17.0878 27.7537 17.0886 27.7532 17.0893C27.7526 17.0899 27.7524 17.0902 27.7524 17.0902L16.7653 30.1225C16.7654 30.1223 16.7623 30.126 16.7536 30.1384C16.7464 30.1486 16.7427 30.1539 16.7379 30.1609C16.7333 30.1677 16.7277 30.176 16.7168 30.1916C16.6871 30.2343 16.63 30.3152 16.5469 30.3911C16.3186 30.5998 15.9868 30.7053 15.7435 30.7593C15.4812 30.8174 15.18 30.8457 14.9322 30.8168C14.6892 30.7884 14.5116 30.6657 14.4089 30.5817L7.74702 25.1322C7.16446 24.6556 7.09526 23.7902 7.5947 23.2271L20.489 8.69044ZM21.6191 9.441C21.5431 9.35907 21.4129 9.36054 21.3388 9.44417L8.44444 23.9808C8.37309 24.0613 8.38297 24.1849 8.4662 24.253L15.1153 29.6921C15.2077 29.6948 15.3484 29.6834 15.4976 29.6504C15.5834 29.6313 15.6577 29.6082 15.7143 29.5846C15.747 29.571 15.7665 29.5603 15.7762 29.5545C15.7784 29.5514 15.7812 29.5475 15.7844 29.5428C15.7868 29.5395 15.7891 29.5361 15.7916 29.5325C15.7946 29.5281 15.7979 29.5233 15.8019 29.5174C15.8086 29.5077 15.8169 29.4957 15.8258 29.4831C15.8435 29.4581 15.8675 29.4252 15.8968 29.3904L26.884 16.358C26.9099 16.3273 26.9347 16.3011 26.9539 16.2816C26.9636 16.2717 26.9728 16.2625 26.9803 16.2549L26.9853 16.25C26.991 16.2443 26.9955 16.2398 27.0001 16.2352C27.0064 16.2288 27.0109 16.2242 27.0138 16.221C27.0198 16.2086 27.0368 16.1706 27.056 16.0968C27.0787 16.0097 27.097 15.9019 27.1078 15.7865C27.1185 15.6714 27.1208 15.5593 27.1156 15.4652C27.113 15.4184 27.1087 15.3797 27.1038 15.3498C27.1038 15.3498 27.1038 15.3497 27.1038 15.3496L21.6191 9.441ZM27.0605 23.1264L28.1363 22.7619L28.975 25.237L31.5874 25.6389L31.4147 26.7616L28.1206 26.2548L27.0605 23.1264ZM25.3596 25.4739L26.4354 25.1092L27.0865 27.0302L30.3212 27.6534L30.1063 28.7688L26.2229 28.0206L25.3596 25.4739ZM23.548 27.7238L24.6123 27.327L25.3453 29.2933H29.0779V30.4292H24.5565L23.548 27.7238Z" fill="#33485D"/>
<path fill-rule="evenodd" clip-rule="evenodd" d="M25.6682 1.0891C25.903 1.29707 25.9248 1.65601 25.7168 1.8908L1.63662 29.0757C1.42864 29.3104 1.06971 29.3322 0.834914 29.1242C0.600122 28.9162 0.578385 28.5573 0.786362 28.3225L24.8665 1.13765C25.0745 0.902857 25.4335 0.881119 25.6682 1.0891Z" fill="#33485D"/>
<path fill-rule="evenodd" clip-rule="evenodd" d="M20.0583 18.6028C19.3917 17.5076 17.9566 17.1586 16.8613 17.8252C15.7661 18.4919 15.4171 19.927 16.0837 21.0222C16.7504 22.1174 18.1855 22.4665 19.2807 21.7998C20.3759 21.1332 20.725 19.698 20.0583 18.6028ZM16.2708 16.855C17.9018 15.8621 20.0357 16.3812 21.0286 18.0122C22.0214 19.6433 21.5023 21.7772 19.8713 22.7701C18.2402 23.7629 16.1063 23.2438 15.1135 21.6128C14.1206 19.9817 14.6397 17.8478 16.2708 16.855Z" fill="#E67861"/>
<path fill-rule="evenodd" clip-rule="evenodd" d="M26.8319 19.2371C27.5747 18.3683 28.9954 18.7845 29.1519 19.9168L29.4182 21.8445L28.2931 22L28.0267 20.0723C28.0043 19.9106 27.8014 19.8511 27.6953 19.9752L19.5557 29.4959C19.4439 29.6267 19.5504 29.8267 19.7213 29.807L22.3491 29.5032L22.4795 30.6315L19.8518 30.9353C18.6553 31.0736 17.9097 29.6733 18.6923 28.7578L26.8319 19.2371Z" fill="#33485D"/>
<path fill-rule="evenodd" clip-rule="evenodd" d="M4.3234 5.90138L7.14038 7.23397L7.6261 6.20721L4.80916 4.87464C4.80916 4.87464 4.80704 4.87361 4.80201 4.87081C4.79637 4.86767 4.78911 4.86344 4.77788 4.85671C4.77519 4.8551 4.77184 4.85308 4.76797 4.85074C4.74757 4.83841 4.71236 4.81713 4.6784 4.79866C4.23991 4.56005 3.68205 4.65784 3.35389 5.05666L1.56595 7.18046L1.56302 7.18405C1.20183 7.62758 1.25839 8.27415 1.6841 8.64877L3.91074 10.9698L4.73041 10.1835L2.48929 7.84735L4.1892 5.82813C4.19079 5.82909 4.19245 5.83008 4.19416 5.83111C4.22291 5.84833 4.26923 5.87576 4.3234 5.90138Z" fill="#33485D"/>
<path fill-rule="evenodd" clip-rule="evenodd" d="M28.8241 21.0165L31.3501 23.1812L31.948 27.1955L27.76 32.4099L23.2595 32.4099L21.6114 29.5458L28.8241 21.0165ZM28.9532 22.623L22.9936 29.6704L23.9164 31.274L27.2154 31.274L30.7513 26.8715L30.2891 23.7678L28.9532 22.623Z" fill="#33485D"/>
<path d="M30.1771 32.6826L29.3051 31.9548L32.0225 28.6993L32.8945 29.4271L30.1771 32.6826Z" fill="#E67861"/>
<path d="M0.720551 7.39111L-0.151457 6.66326L2.56587 3.40776L3.43788 4.13562L0.720551 7.39111Z" fill="#E67861"/>
<path fill-rule="evenodd" clip-rule="evenodd" d="M15.4229 3.36377L18.4933 7.24696L6.73958 20.9078L5.94233 21.705L2.42255 21.0103L1.18237 16.4789L2.94306 16.1513L2.86615 12.5366L4.89925 12.3832L4.97505 9.76798L7.21718 9.61064L7.86736 6.47446H9.99968L10.5523 4.11649L15.4229 3.36377ZM11.1663 6.47446H14.0385L13.8116 10.9468L17.0212 7.21644L14.9424 4.58738L11.4833 5.12196L11.1663 6.47446ZM12.6963 12.243L12.6088 12.2386L12.8435 7.61032H8.79189L8.39191 9.53961L10.969 9.3984L11.3454 13.8131L12.6963 12.243ZM10.3929 14.9202L10.3005 14.9281L9.93083 10.5928L7.72136 10.7139L6.08063 10.8291L6.03803 12.299L7.9835 12.1575L8.95871 16.587L10.3929 14.9202ZM8.03261 17.6634L7.08555 13.3616L5.49486 13.4773L5.49331 13.4774L4.02465 13.5883L4.074 15.9079L5.89382 15.4798L6.65157 19.2685L8.03261 17.6634ZM5.70643 20.3346L5.01042 16.8545L3.63817 17.1774L2.60382 17.3698L3.33247 20.0322L5.5677 20.4733L5.70643 20.3346Z" fill="#33485D"/>
</g>
<defs>
<clipPath id="clip0_424_887">
<rect width="34" height="34" fill="white"/>
</clipPath>
</defs>
</svg>
