<svg width="34" height="34" viewBox="0 0 34 34" fill="none" xmlns="http://www.w3.org/2000/svg">
<g clip-path="url(#clip0_424_651)">
<path fill-rule="evenodd" clip-rule="evenodd" d="M14.4406 15.7252C14.6889 15.9168 14.7349 16.2734 14.5433 16.5217L7.2925 25.921L7.26669 25.9468C7.2516 25.9619 7.2516 25.9852 7.26669 26.0003L8.44468 27.1783C8.45977 27.1934 8.48313 27.1934 8.49823 27.1783L8.51117 27.1654L17.3598 19.3893C17.5954 19.1822 17.9543 19.2054 18.1613 19.441C18.3684 19.6766 18.3452 20.0355 18.1096 20.2425L9.28628 27.9963C8.82655 28.4401 8.09517 28.4352 7.64151 27.9815L6.46352 26.8035C6.01485 26.3548 6.00507 25.6345 6.43416 25.174L13.644 15.828C13.8356 15.5796 14.1922 15.5336 14.4406 15.7252Z" fill="#33485D"/>
<path fill-rule="evenodd" clip-rule="evenodd" d="M1.47194 29.6848L4.43896 32.6518L8.79614 29.1931L4.93058 25.3276L1.47194 29.6848ZM4.45384 24.1012C4.69073 23.8643 5.07368 23.8643 5.31056 24.1012L10.0225 28.8132C10.2594 29.05 10.2594 29.433 10.0225 29.6699L4.82951 33.792C4.59263 34.0288 4.20968 34.0288 3.9728 33.792L0.331749 30.1509C0.0948673 29.914 0.0948674 29.5311 0.33175 29.2942L4.45384 24.1012Z" fill="#33485D"/>
<path fill-rule="evenodd" clip-rule="evenodd" d="M12.3412 18.6999L12.6117 19.0389L11.7237 19.7472L11.4412 19.393L11.4354 19.3853C10.5277 18.1645 9.90024 16.9026 9.64724 15.774C9.39841 14.664 9.4895 13.5505 10.2276 12.8124C11.1221 11.9179 12.6094 11.9227 14.0471 12.3777C15.5307 12.8472 17.1738 13.8508 18.6163 15.2933C20.0587 16.7358 21.0624 18.3789 21.5319 19.8625C21.9869 21.3002 21.9917 22.7875 21.0972 23.682C20.38 24.3991 19.3075 24.5052 18.2325 24.2832C17.1419 24.058 15.9221 23.4761 14.7341 22.6271L15.3945 21.703C16.4954 22.4897 17.5701 22.9866 18.4622 23.1708C19.3701 23.3583 19.9687 23.2041 20.2941 22.8788C20.7183 22.4545 20.8703 21.5367 20.449 20.2052C20.0421 18.9195 19.146 17.4293 17.8131 16.0965C16.4803 14.7636 14.9901 13.8675 13.7044 13.4606C12.3729 13.0392 11.4551 13.1913 11.0308 13.6155C10.6959 13.9505 10.5428 14.5761 10.7556 15.5255C10.9638 16.4543 11.5018 17.5691 12.3412 18.6999Z" fill="#33485D"/>
<path fill-rule="evenodd" clip-rule="evenodd" d="M20.237 23.6845C20.4323 23.9299 20.7896 23.9705 21.035 23.7751L24.1848 21.2673C24.1852 21.267 24.1856 21.2667 24.186 21.2665C25.5718 20.1742 26.3114 18.75 26.0955 16.9884C25.8865 15.2834 24.7918 13.3582 22.7778 11.1812L22.7628 11.165L22.7466 11.15C20.5691 9.13552 18.6691 8.06648 16.9753 7.87197C15.2302 7.67158 13.8161 8.40913 12.6775 9.72235L12.6697 9.73134L10.1527 12.8928C9.9573 13.1382 9.99785 13.4955 10.2432 13.6908C10.4886 13.8862 10.8459 13.8456 11.0413 13.6003L13.5433 10.4576C14.4977 9.36075 15.5633 8.85316 16.8457 9.00042C18.1793 9.15355 19.8539 10.0248 21.959 11.9688C23.9036 14.0745 24.8026 15.7773 24.968 17.1266C25.1269 18.4221 24.6186 19.4796 23.4819 20.3751L23.4808 20.376L20.3275 22.8865C20.0821 23.0819 20.0416 23.4392 20.237 23.6845Z" fill="#33485D"/>
<path fill-rule="evenodd" clip-rule="evenodd" d="M16.8143 8.70206C17.0506 8.90839 17.4093 8.88415 17.6157 8.64791L18.3485 7.8089C18.9127 7.20528 19.7471 6.88021 20.7979 7.03489C21.8679 7.1924 23.1906 7.85548 24.6377 9.30251C26.1166 10.7814 26.7791 12.0759 26.938 13.1133C27.0923 14.1214 26.7804 14.934 26.1882 15.5337L25.401 16.216C25.164 16.4214 25.1383 16.7801 25.3438 17.0171C25.5492 17.2541 25.9079 17.2798 26.1449 17.0743L26.9634 16.365L26.9777 16.3507C27.8291 15.4993 28.2721 14.3219 28.0607 12.9414C27.8527 11.5826 27.0206 10.0791 25.4408 8.49933C23.8827 6.94118 22.3486 6.11507 20.9633 5.91115C19.5624 5.70492 18.3451 6.1435 17.5106 7.04192L17.5047 7.04829L16.7602 7.90072C16.5538 8.13696 16.5781 8.49573 16.8143 8.70206Z" fill="#33485D"/>
<path fill-rule="evenodd" clip-rule="evenodd" d="M12.8748 18.2525C12.7741 18.0805 12.6865 17.9117 12.6121 17.7481C12.4069 17.2966 12.311 16.9031 12.305 16.5973C12.2991 16.294 12.3799 16.1218 12.4761 16.0256C12.6363 15.8654 13.0389 15.7552 13.7995 16.0385C14.5175 16.306 15.3733 16.8697 16.1799 17.6763C16.9865 18.4829 17.5502 19.3387 17.8177 20.0567C18.101 20.8173 17.9908 21.2199 17.8306 21.3801C17.7189 21.4918 17.4988 21.5849 17.0955 21.5402C16.6958 21.496 16.1907 21.3203 15.6363 21.0004L15.0687 21.9842C15.712 22.3554 16.3686 22.6025 16.9704 22.6692C17.5684 22.7355 18.1893 22.6277 18.6338 22.1832C19.2906 21.5264 19.2039 20.5243 18.8821 19.6602C18.5443 18.7534 17.8742 17.7642 16.9831 16.8731C16.092 15.982 15.1028 15.3119 14.196 14.9741C13.3319 14.6523 12.3298 14.5656 11.673 15.2224C11.2945 15.6008 11.1595 16.1108 11.1694 16.6195C11.1793 17.1258 11.331 17.6746 11.5781 18.2181C11.6696 18.4195 11.7755 18.6229 11.8944 18.8262L12.8748 18.2525Z" fill="#33485D"/>
<path fill-rule="evenodd" clip-rule="evenodd" d="M5.42355 28.7213C5.10805 28.4058 4.59318 28.4058 4.27769 28.7213C3.96219 29.0368 3.96219 29.5516 4.27769 29.8671C4.59318 30.1826 5.10805 30.1826 5.42355 29.8671C5.73904 29.5516 5.73904 29.0368 5.42355 28.7213ZM3.47451 27.9181C4.23359 27.159 5.46765 27.159 6.22672 27.9181C6.98579 28.6772 6.98579 29.9112 6.22672 30.6703C5.46765 31.4294 4.23359 31.4294 3.47451 30.6703C2.71544 29.9112 2.71544 28.6772 3.47451 27.9181Z" fill="#E67861"/>
<path fill-rule="evenodd" clip-rule="evenodd" d="M26.7036 12.088C26.932 12.3029 27.2914 12.292 27.5064 12.0636L29.3488 10.1061C29.5638 9.87771 29.5529 9.51828 29.3245 9.30331C29.0961 9.08834 28.7366 9.09923 28.5217 9.32764L26.6793 11.2852C26.4643 11.5136 26.4752 11.873 26.7036 12.088ZM21.8166 7.10698C22.0265 7.34001 22.3856 7.35871 22.6187 7.14876L28.0382 2.2657L28.0487 2.25525C28.0616 2.24237 28.0814 2.24237 28.0942 2.25525L28.0948 2.25586L31.5328 5.67308C31.5328 5.67316 31.5329 5.67325 31.533 5.67333C31.5456 5.68621 31.5455 5.70582 31.5328 5.71861L31.5125 5.73889L30.6237 6.82787C30.4254 7.07087 30.4616 7.42863 30.7046 7.62696C30.9476 7.82528 31.3054 7.78906 31.5037 7.54606L32.3591 6.49795C32.7923 6.03995 32.7845 5.3185 32.3359 4.8699L32.3353 4.8693L28.8974 1.45208C28.8971 1.45181 28.8969 1.45155 28.8966 1.45128C28.4441 0.999663 27.7148 0.995917 27.2577 1.44005L21.8583 6.3049C21.6253 6.51485 21.6066 6.87396 21.8166 7.10698Z" fill="#33485D"/>
<path fill-rule="evenodd" clip-rule="evenodd" d="M29.0514 5.97451L27.6057 7.42022L31.2468 11.0613L32.6925 9.61556L29.0514 5.97451ZM29.6672 4.98393L33.683 8.99979C34.0231 9.33987 34.0231 9.89125 33.683 10.2313L31.8625 12.0518C31.5224 12.3919 30.9711 12.3919 30.631 12.0518L26.6151 8.03599C26.2751 7.69591 26.2751 7.14453 26.6151 6.80445L28.4357 4.98393C28.7757 4.64385 29.3271 4.64385 29.6672 4.98393Z" fill="#E67861"/>
</g>
<defs>
<clipPath id="clip0_424_651">
<rect width="34" height="34" fill="white"/>
</clipPath>
</defs>
</svg>
