<svg width="30" height="30" viewBox="0 0 30 30" fill="none" xmlns="http://www.w3.org/2000/svg">
<g clip-path="url(#clip0_252_32)">
<path d="M29.5357 7.82601C28.5451 5.13982 26.1738 3.38229 23.3479 3.23844C23.3367 3.23814 23.3262 3.23779 23.3154 3.23779H22.9006C19.333 3.23779 16.2684 5.43461 14.9888 8.54637C13.7091 5.43461 10.6446 3.23779 7.07692 3.23779H6.66219C6.65135 3.23779 6.64051 3.23809 6.62967 3.23844C3.81012 3.38199 1.44613 5.14082 0.460988 7.82888C-0.55609 10.6041 0.137196 13.5704 2.26797 15.5694L13.4773 26.1716C13.9147 26.5653 14.4679 26.7618 15.0169 26.7618C15.5714 26.7618 16.1213 26.5615 16.5431 26.1618L18.2473 24.5535C18.6751 24.1257 18.9173 23.5617 18.9288 22.9661C18.9403 22.357 18.7099 21.7844 18.2793 21.354C18.0301 21.1049 17.6262 21.1049 17.377 21.354C17.1279 21.6031 17.1279 22.007 17.377 22.2562C17.7589 22.6385 17.7452 23.251 17.3585 23.638L15.6667 25.2341C15.3046 25.5764 14.7176 25.5713 14.3424 25.2338L3.14273 14.6401C1.38971 12.9955 0.821518 10.554 1.65924 8.26787C2.46321 6.07363 4.38563 4.63608 6.67877 4.51356H7.07692C11.0877 4.51356 14.3507 7.77656 14.3507 11.7873C14.3507 12.1395 14.6365 12.4254 14.9887 12.4254C15.3409 12.4254 15.6268 12.1395 15.6268 11.7873C15.6268 7.77656 18.8897 4.51356 22.9005 4.51356H23.2987C25.5991 4.63673 27.5293 6.07393 28.3383 8.26752C29.1783 10.5454 28.6136 12.9878 26.8519 14.6544L23.2789 18.2275C22.8498 18.6566 22.6133 19.2187 22.6133 19.8111C22.6133 20.4036 22.8497 20.9656 23.2789 21.3947C23.528 21.6439 23.9319 21.6439 24.1811 21.3947C24.4302 21.1456 24.4302 20.7417 24.1811 20.4925C23.9929 20.3043 23.8895 20.0625 23.8895 19.811C23.8895 19.5596 23.9929 19.3179 24.1811 19.1296L27.7414 15.5689C29.8682 13.558 30.5554 10.591 29.5357 7.82601Z" fill="#33485D"/>
</g>
<defs>
<clipPath id="clip0_252_32">
<rect width="30" height="30" fill="white"/>
</clipPath>
</defs>
</svg>
