<svg width="34" height="34" viewBox="0 0 34 34" fill="none" xmlns="http://www.w3.org/2000/svg">
<g clip-path="url(#clip0_424_926)">
<path d="M19.9006 1.69591L21.8175 5.25807L20.3053 4.83895L18.9004 2.23203C18.7037 1.86565 18.4034 1.56533 18.0369 1.36874C17.0077 0.816534 15.7257 1.20325 15.1736 2.23244L13.7732 4.83895L12.2557 5.25928L14.1738 1.69591C14.4758 1.13433 14.9362 0.673937 15.4977 0.372014C17.0791 -0.478208 19.0503 0.114519 19.9006 1.69591Z" fill="#33485D"/>
<path d="M19.9006 32.2724L21.8175 28.7102L20.3053 29.1293L18.9004 31.7362C18.7037 32.1026 18.4034 32.4029 18.0369 32.5995C17.0077 33.1517 15.7257 32.765 15.1736 31.7358L13.7732 29.1293L12.2557 28.709L14.1738 32.2724C14.4758 32.8339 14.9362 33.2943 15.4977 33.5962C17.0791 34.4465 19.0503 33.8537 19.9006 32.2724Z" fill="#33485D"/>
<path d="M17.0449 8.68945C17.4058 8.68945 17.7585 8.58245 18.0585 8.38197C18.3586 8.1815 18.5924 7.89655 18.7305 7.56318C18.8686 7.2298 18.9047 6.86296 18.8343 6.50905C18.7639 6.15513 18.5902 5.83005 18.335 5.57489C18.0799 5.31973 17.7548 5.14597 17.4009 5.07557C17.0469 5.00517 16.6801 5.0413 16.3467 5.17939C16.0134 5.31748 15.7284 5.55133 15.5279 5.85136C15.3275 6.15139 15.2205 6.50414 15.2205 6.86498C15.2205 7.34886 15.4127 7.81292 15.7548 8.15508C16.097 8.49723 16.561 8.68945 17.0449 8.68945ZM17.0449 6.25683C17.1652 6.25683 17.2828 6.29249 17.3828 6.35932C17.4828 6.42614 17.5608 6.52113 17.6068 6.63225C17.6528 6.74338 17.6649 6.86566 17.6414 6.98363C17.6179 7.1016 17.56 7.20996 17.475 7.29502C17.3899 7.38007 17.2815 7.43799 17.1636 7.46145C17.0456 7.48492 16.9233 7.47288 16.8122 7.42685C16.7011 7.38082 16.6061 7.30287 16.5393 7.20286C16.4724 7.10285 16.4368 6.98527 16.4368 6.86498C16.4368 6.70369 16.5008 6.549 16.6149 6.43495C16.7289 6.3209 16.8836 6.25683 17.0449 6.25683Z" fill="#33485D"/>
<path d="M17.0449 25.2349C16.6841 25.2349 16.3313 25.3419 16.0313 25.5423C15.7313 25.7428 15.4974 26.0278 15.3593 26.3611C15.2212 26.6945 15.1851 27.0613 15.2555 27.4153C15.3259 27.7692 15.4997 28.0943 15.7548 28.3494C16.01 28.6046 16.3351 28.7783 16.689 28.8487C17.0429 28.9191 17.4098 28.883 17.7431 28.7449C18.0765 28.6068 18.3615 28.373 18.5619 28.0729C18.7624 27.7729 18.8694 27.4202 18.8694 27.0593C18.8694 26.5754 18.6772 26.1114 18.335 25.7692C17.9929 25.4271 17.5288 25.2349 17.0449 25.2349ZM17.6531 27.0593C17.6531 27.1796 17.6174 27.2972 17.5506 27.3972C17.4838 27.4972 17.3888 27.5752 17.2777 27.6212C17.1665 27.6672 17.0443 27.6793 16.9263 27.6558C16.8083 27.6323 16.7 27.5744 16.6149 27.4894C16.5298 27.4043 16.4719 27.2959 16.4485 27.178C16.425 27.06 16.437 26.9377 16.4831 26.8266C16.5291 26.7155 16.607 26.6205 16.7071 26.5537C16.8071 26.4868 16.9247 26.4512 17.0449 26.4512C17.2062 26.4512 17.3609 26.5152 17.475 26.6293C17.589 26.7433 17.6531 26.898 17.6531 27.0593Z" fill="#E67861"/>
<path fill-rule="evenodd" clip-rule="evenodd" d="M17.0449 25.8406C16.8039 25.8406 16.5683 25.9121 16.3679 26.046C16.1675 26.1799 16.0113 26.3703 15.919 26.593C15.8268 26.8156 15.8026 27.0607 15.8497 27.2971C15.8967 27.5335 16.0128 27.7506 16.1832 27.9211C16.3536 28.0915 16.5708 28.2076 16.8072 28.2546C17.0436 28.3016 17.2886 28.2775 17.5113 28.1852C17.734 28.093 17.9243 27.9368 18.0582 27.7364C18.1921 27.536 18.2636 27.3004 18.2636 27.0593C18.2636 26.7361 18.1352 26.4261 17.9067 26.1976C17.6781 25.969 17.3681 25.8406 17.0449 25.8406ZM18.2589 27.0593C18.2589 27.2994 18.1877 27.5341 18.0543 27.7338C17.9209 27.9334 17.7313 28.089 17.5095 28.1809C17.2877 28.2727 17.0436 28.2968 16.8081 28.2499C16.5726 28.2031 16.3563 28.0875 16.1865 27.9177C16.0168 27.7479 15.9012 27.5316 15.8543 27.2962C15.8075 27.0607 15.8315 26.8166 15.9234 26.5948C16.0153 26.3729 16.1709 26.1834 16.3705 26.05C16.5701 25.9166 16.8048 25.8454 17.0449 25.8454C17.3669 25.8454 17.6757 25.9733 17.9033 26.2009C18.131 26.4286 18.2589 26.7374 18.2589 27.0593ZM16.0313 25.5423C16.3313 25.3419 16.6841 25.2349 17.0449 25.2349C17.5288 25.2349 17.9929 25.4271 18.335 25.7692C18.6772 26.1114 18.8694 26.5754 18.8694 27.0593C18.8694 27.4202 18.7624 27.7729 18.5619 28.0729C18.3615 28.373 18.0765 28.6068 17.7431 28.7449C17.4098 28.883 17.0429 28.9191 16.689 28.8487C16.3351 28.7783 16.01 28.6046 15.7548 28.3494C15.4997 28.0943 15.3259 27.7692 15.2555 27.4153C15.1851 27.0613 15.2212 26.6945 15.3593 26.3611C15.4974 26.0278 15.7313 25.7428 16.0313 25.5423ZM17.5506 27.3972C17.6174 27.2972 17.6531 27.1796 17.6531 27.0593C17.6531 26.898 17.589 26.7433 17.475 26.6293C17.3609 26.5152 17.2062 26.4512 17.0449 26.4512C16.9247 26.4512 16.8071 26.4868 16.7071 26.5537C16.607 26.6205 16.5291 26.7155 16.4831 26.8266C16.437 26.9377 16.425 27.06 16.4485 27.178C16.4719 27.2959 16.5298 27.4043 16.6149 27.4894C16.7 27.5744 16.8083 27.6323 16.9263 27.6558C17.0443 27.6793 17.1665 27.6672 17.2777 27.6212C17.3888 27.5752 17.4838 27.4972 17.5506 27.3972Z" fill="#E67861"/>
<path fill-rule="evenodd" clip-rule="evenodd" d="M17.0379 23.5499C20.5927 23.5499 23.4744 20.6682 23.4744 17.1134C23.4744 13.5586 20.5927 10.6769 17.0379 10.6769C13.4831 10.6769 10.6014 13.5586 10.6014 17.1134C10.6014 20.6682 13.4831 23.5499 17.0379 23.5499ZM17.0379 24.6858C21.22 24.6858 24.6103 21.2955 24.6103 17.1134C24.6103 12.9313 21.22 9.54102 17.0379 9.54102C12.8558 9.54102 9.46555 12.9313 9.46555 17.1134C9.46555 21.2955 12.8558 24.6858 17.0379 24.6858Z" fill="#E67861"/>
<path d="M29.871 8.19833L28.7077 12.0726L27.9347 10.707L28.7847 7.87023C28.9047 7.47207 28.9047 7.04736 28.7846 6.6492C28.4473 5.53096 27.2673 4.89792 26.1492 5.23523L23.3158 6.08806L21.9456 5.3123L25.8216 4.14893C26.4322 3.96533 27.0833 3.96533 27.6939 4.14893C29.4133 4.66594 30.388 6.47892 29.871 8.19833Z" fill="#33485D"/>
<path d="M8.25012 29.8195L12.1244 28.6561L10.7588 27.8831L7.92202 28.7332C7.52386 28.8531 7.09915 28.8531 6.70099 28.733C5.58275 28.3957 4.94971 27.2158 5.28702 26.0976L6.13985 23.2642L5.36409 21.894L4.20072 25.77C4.01712 26.3806 4.01712 27.0317 4.20072 27.6423C4.71773 29.3617 6.53071 30.3365 8.25012 29.8195Z" fill="#33485D"/>
<path d="M23.0363 11.1768C23.2914 11.432 23.6165 11.6057 23.9704 11.6761C24.3244 11.7465 24.6912 11.7104 25.0246 11.5723C25.358 11.4342 25.6429 11.2004 25.8434 10.9003C26.0439 10.6003 26.1509 10.2476 26.1509 9.88672C26.1509 9.52587 26.0439 9.17313 25.8434 8.8731C25.6429 8.57306 25.358 8.33922 25.0246 8.20113C24.6912 8.06304 24.3244 8.02691 23.9704 8.09731C23.6165 8.1677 23.2914 8.34147 23.0363 8.59662C22.6941 8.93878 22.5019 9.40284 22.5019 9.88672C22.5019 10.3706 22.6941 10.8347 23.0363 11.1768ZM24.7564 9.45669C24.8415 9.54174 24.8994 9.6501 24.9229 9.76807C24.9463 9.88604 24.9343 10.0083 24.8883 10.1194C24.8422 10.2306 24.7643 10.3256 24.6643 10.3924C24.5643 10.4592 24.4467 10.4949 24.3264 10.4949C24.2061 10.4949 24.0885 10.4592 23.9885 10.3924C23.8885 10.3256 23.8106 10.2306 23.7645 10.1194C23.7185 10.0083 23.7064 9.88604 23.7299 9.76807C23.7534 9.6501 23.8113 9.54174 23.8964 9.45669C24.0104 9.34264 24.1651 9.27856 24.3264 9.27856C24.4877 9.27856 24.6424 9.34264 24.7564 9.45669Z" fill="#E67861"/>
<path fill-rule="evenodd" clip-rule="evenodd" d="M23.4646 10.7485C23.6351 10.9189 23.8522 11.035 24.0886 11.082C24.325 11.129 24.5701 11.1049 24.7928 11.0126C25.0154 10.9204 25.2058 10.7642 25.3397 10.5638C25.4736 10.3634 25.5451 10.1278 25.5451 9.88672C25.5451 9.64568 25.4736 9.41007 25.3397 9.20965C25.2058 9.00924 25.0154 8.85304 24.7928 8.7608C24.5701 8.66856 24.325 8.64443 24.0886 8.69145C23.8522 8.73848 23.6351 8.85454 23.4646 9.02498C23.2361 9.25353 23.1077 9.5635 23.1077 9.88672C23.1077 10.2099 23.2361 10.5199 23.4646 10.7485ZM25.1848 9.02833C25.3546 9.1981 25.4702 9.4144 25.517 9.64989C25.5639 9.88537 25.5398 10.1295 25.4479 10.3513C25.356 10.5731 25.2005 10.7627 25.0008 10.8961C24.8012 11.0295 24.5665 11.1007 24.3264 11.1007C24.0863 11.1007 23.8516 11.0295 23.6519 10.8961C23.4523 10.7627 23.2967 10.5731 23.2048 10.3513C23.113 10.1295 23.0889 9.88537 23.1358 9.64989C23.1826 9.4144 23.2982 9.1981 23.468 9.02833C23.6956 8.80067 24.0044 8.67277 24.3264 8.67277C24.6483 8.67277 24.9571 8.80067 25.1848 9.02833ZM23.9704 11.6761C23.6165 11.6057 23.2914 11.432 23.0363 11.1768C22.6941 10.8347 22.5019 10.3706 22.5019 9.88672C22.5019 9.40284 22.6941 8.93878 23.0363 8.59662C23.2914 8.34146 23.6165 8.1677 23.9704 8.0973C24.3244 8.0269 24.6912 8.06304 25.0246 8.20113C25.358 8.33922 25.6429 8.57306 25.8434 8.87309C26.0439 9.17313 26.1509 9.52587 26.1509 9.88672C26.1509 10.2476 26.0439 10.6003 25.8434 10.9003C25.6429 11.2004 25.358 11.4342 25.0246 11.5723C24.6912 11.7104 24.3244 11.7465 23.9704 11.6761ZM24.9229 9.76807C24.8994 9.6501 24.8415 9.54174 24.7564 9.45669C24.6424 9.34263 24.4877 9.27856 24.3264 9.27856C24.1651 9.27856 24.0104 9.34263 23.8964 9.45669C23.8113 9.54174 23.7534 9.6501 23.7299 9.76807C23.7064 9.88604 23.7185 10.0083 23.7645 10.1195C23.8105 10.2306 23.8885 10.3256 23.9885 10.3924C24.0885 10.4592 24.2061 10.4949 24.3264 10.4949C24.4467 10.4949 24.5642 10.4592 24.6643 10.3924C24.7643 10.3256 24.8422 10.2306 24.8882 10.1194C24.9343 10.0083 24.9463 9.88604 24.9229 9.76807Z" fill="#E67861"/>
<path d="M11.2833 22.9296C11.0281 22.6745 10.703 22.5007 10.3491 22.4303C9.99518 22.3599 9.62834 22.3961 9.29496 22.5341C8.96158 22.6722 8.67664 22.9061 8.47616 23.2061C8.27569 23.5061 8.16869 23.8589 8.16869 24.2197C8.16869 24.5806 8.27569 24.9333 8.47616 25.2333C8.67664 25.5334 8.96158 25.7672 9.29496 25.9053C9.62834 26.0434 9.99518 26.0795 10.3491 26.0091C10.703 25.9387 11.0281 25.765 11.2833 25.5098C11.6254 25.1677 11.8176 24.7036 11.8176 24.2197C11.8176 23.7358 11.6254 23.2718 11.2833 22.9296ZM10.4232 24.6498C10.3381 24.7348 10.2298 24.7927 10.1118 24.8162C9.99383 24.8397 9.87155 24.8276 9.76042 24.7816C9.6493 24.7356 9.55432 24.6576 9.48749 24.5576C9.42067 24.4576 9.385 24.34 9.385 24.2197C9.385 24.0994 9.42067 23.9819 9.48749 23.8819C9.55432 23.7818 9.6493 23.7039 9.76042 23.6579C9.87155 23.6118 9.99383 23.5998 10.1118 23.6233C10.2298 23.6467 10.3381 23.7046 10.4232 23.7897C10.5372 23.9037 10.6013 24.0584 10.6013 24.2197C10.6013 24.381 10.5372 24.5357 10.4232 24.6498Z" fill="#33485D"/>
<path d="M6.84741 27.9443L6.04424 27.1412L9.04275 24.1427L9.84593 24.9458L6.84741 27.9443Z" fill="#33485D"/>
<path d="M25.8225 29.8195L21.9482 28.6561L23.3139 27.8831L26.1506 28.7331C26.5488 28.8531 26.9735 28.8531 27.3716 28.733C28.4899 28.3957 29.1229 27.2158 28.7856 26.0976L27.9328 23.2642L28.7085 21.894L29.8719 25.77C30.0555 26.3806 30.0555 27.0317 29.8719 27.6423C29.3549 29.3617 27.5419 30.3365 25.8225 29.8195Z" fill="#33485D"/>
<path d="M4.2016 8.19833L5.36497 12.0726L6.1379 10.707L5.2879 7.87023C5.16791 7.47208 5.16791 7.04736 5.28804 6.64921C5.62535 5.53096 6.80529 4.89792 7.92347 5.23523L10.7568 6.08807L12.127 5.3123L8.251 4.14893C7.64042 3.96533 6.98932 3.96533 6.37873 4.14893C4.65933 4.66594 3.68459 6.47892 4.2016 8.19833Z" fill="#33485D"/>
<path d="M22.8442 22.9844C22.5891 23.2396 22.4153 23.5647 22.3449 23.9186C22.2745 24.2725 22.3107 24.6393 22.4488 24.9727C22.5868 25.3061 22.8207 25.591 23.1207 25.7915C23.4208 25.992 23.7735 26.099 24.1343 26.099C24.4952 26.099 24.8479 25.992 25.148 25.7915C25.448 25.591 25.6818 25.3061 25.8199 24.9727C25.958 24.6393 25.9941 24.2725 25.9237 23.9186C25.8534 23.5647 25.6796 23.2396 25.4244 22.9844C25.0823 22.6423 24.6182 22.4501 24.1343 22.4501C23.6505 22.4501 23.1864 22.6423 22.8442 22.9844ZM24.5644 24.7046C24.4793 24.7896 24.371 24.8475 24.253 24.871C24.135 24.8945 24.0127 24.8824 23.9016 24.8364C23.7905 24.7904 23.6955 24.7124 23.6287 24.6124C23.5618 24.5124 23.5262 24.3948 23.5262 24.2745C23.5262 24.1542 23.5618 24.0367 23.6287 23.9366C23.6955 23.8366 23.7905 23.7587 23.9016 23.7127C24.0127 23.6666 24.135 23.6546 24.253 23.6781C24.371 23.7015 24.4793 23.7594 24.5644 23.8445C24.6784 23.9585 24.7425 24.1132 24.7425 24.2745C24.7425 24.4358 24.6784 24.5905 24.5644 24.7046Z" fill="#33485D"/>
<path d="M11.0912 11.2316C11.3463 10.9765 11.5201 10.6514 11.5905 10.2975C11.6609 9.94354 11.6247 9.5767 11.4866 9.24333C11.3486 8.90995 11.1147 8.625 10.8147 8.42453C10.5146 8.22405 10.1619 8.11705 9.80106 8.11705C9.44021 8.11705 9.08747 8.22405 8.78743 8.42453C8.4874 8.625 8.25355 8.90995 8.11546 9.24332C7.97737 9.5767 7.94124 9.94354 8.01164 10.2975C8.08204 10.6514 8.2558 10.9765 8.51096 11.2316C8.85311 11.5738 9.31718 11.766 9.80106 11.766C10.2849 11.766 10.749 11.5738 11.0912 11.2316ZM9.37102 10.3716C9.28597 10.2865 9.22805 10.1781 9.20458 10.0602C9.18112 9.94219 9.19316 9.81991 9.23919 9.70879C9.28522 9.59766 9.36317 9.50268 9.46318 9.43586C9.56319 9.36903 9.68077 9.33336 9.80106 9.33336C9.92134 9.33336 10.0389 9.36903 10.1389 9.43586C10.2389 9.50268 10.3169 9.59766 10.3629 9.70879C10.4089 9.81991 10.421 9.94219 10.3975 10.0602C10.3741 10.1781 10.3161 10.2865 10.2311 10.3716C10.117 10.4856 9.96235 10.5497 9.80106 10.5497C9.63976 10.5497 9.48508 10.4856 9.37102 10.3716Z" fill="#E67861"/>
<path fill-rule="evenodd" clip-rule="evenodd" d="M10.6628 10.8033C10.8332 10.6328 10.9493 10.4157 10.9963 10.1793C11.0433 9.94287 11.0192 9.69784 10.927 9.47515C10.8347 9.25247 10.6785 9.06213 10.4781 8.92822C10.2777 8.79431 10.0421 8.72284 9.80106 8.72284C9.56002 8.72284 9.3244 8.79431 9.12399 8.92822C8.92358 9.06213 8.76738 9.25247 8.67514 9.47515C8.5829 9.69783 8.55877 9.94287 8.60579 10.1793C8.65282 10.4157 8.76888 10.6328 8.93932 10.8033C9.16786 11.0318 9.47784 11.1602 9.80106 11.1602C10.1243 11.1602 10.4342 11.0318 10.6628 10.8033ZM8.94266 10.7999C8.77289 10.6301 8.65727 10.4138 8.61043 10.1783C8.56359 9.94286 8.58763 9.69878 8.67951 9.47696C8.77139 9.25514 8.92699 9.06555 9.12662 8.93216C9.32625 8.79877 9.56096 8.72757 9.80106 8.72757C10.0412 8.72757 10.2759 8.79877 10.4755 8.93216C10.6751 9.06555 10.8307 9.25514 10.9226 9.47696C11.0145 9.69878 11.0385 9.94286 10.9917 10.1783C10.9448 10.4138 10.8292 10.6301 10.6594 10.7999C10.4318 11.0276 10.123 11.1555 9.80106 11.1555C9.47909 11.1555 9.17032 11.0276 8.94266 10.7999ZM11.5905 10.2975C11.5201 10.6514 11.3463 10.9765 11.0912 11.2316C10.749 11.5738 10.2849 11.766 9.80106 11.766C9.31718 11.766 8.85311 11.5738 8.51096 11.2316C8.2558 10.9765 8.08204 10.6514 8.01164 10.2975C7.94124 9.94354 7.97737 9.5767 8.11546 9.24332C8.25355 8.90995 8.4874 8.625 8.78743 8.42453C9.08747 8.22405 9.44021 8.11705 9.80106 8.11705C10.1619 8.11705 10.5146 8.22405 10.8147 8.42453C11.1147 8.625 11.3486 8.90995 11.4866 9.24333C11.6247 9.5767 11.6609 9.94354 11.5905 10.2975ZM9.20458 10.0602C9.22805 10.1781 9.28597 10.2865 9.37102 10.3716C9.48508 10.4856 9.63976 10.5497 9.80106 10.5497C9.96235 10.5497 10.117 10.4856 10.2311 10.3716C10.3161 10.2865 10.3741 10.1781 10.3975 10.0602C10.421 9.94219 10.4089 9.81991 10.3629 9.70879C10.3169 9.59766 10.2389 9.50268 10.1389 9.43586C10.0389 9.36903 9.92134 9.33336 9.80106 9.33336C9.68077 9.33336 9.56319 9.36903 9.46318 9.43586C9.36317 9.50268 9.28522 9.59766 9.23919 9.70879C9.19316 9.81991 9.18112 9.94219 9.20458 10.0602Z" fill="#E67861"/>
<path d="M24.2816 25.001L25.0848 24.1978L28.0833 27.1963L27.2801 27.9995L24.2816 25.001Z" fill="#33485D"/>
<path d="M32.3253 19.8476L28.7631 21.7645L29.1823 20.2523L31.7892 18.8475C32.1556 18.6508 32.4559 18.3505 32.6525 17.984C33.2047 16.9548 32.818 15.6728 31.7888 15.1206L29.1823 13.7202L28.7619 12.2028L32.3253 14.1209C32.8869 14.4228 33.3473 14.8832 33.6492 15.4448C34.4994 17.0262 33.9067 18.9974 32.3253 19.8476Z" fill="#33485D"/>
<path d="M1.74864 19.8476L5.31081 21.7645L4.89168 20.2523L2.28477 18.8475C1.91838 18.6508 1.61806 18.3505 1.42147 17.984C0.869268 16.9548 1.25599 15.6728 2.28517 15.1206L4.89168 13.7202L5.31201 12.2028L1.74864 14.1209C1.18707 14.4228 0.726672 14.8832 0.424749 15.4448C-0.425473 17.0262 0.167253 18.9974 1.74864 19.8476Z" fill="#33485D"/>
<path d="M25.3865 17.1209C25.3865 17.4817 25.4935 17.8344 25.694 18.1345C25.8944 18.4345 26.1794 18.6683 26.5128 18.8064C26.8461 18.9445 27.213 18.9807 27.5669 18.9103C27.9208 18.8399 28.2459 18.6661 28.501 18.4109C28.7562 18.1558 28.93 17.8307 29.0004 17.4768C29.0708 17.1229 29.0346 16.756 28.8965 16.4227C28.7585 16.0893 28.5246 15.8043 28.2246 15.6039C27.9245 15.4034 27.5718 15.2964 27.2109 15.2964C26.7271 15.2964 26.263 15.4886 25.9209 15.8308C25.5787 16.1729 25.3865 16.637 25.3865 17.1209ZM27.8191 17.1209C27.8191 17.2411 27.7834 17.3587 27.7166 17.4587C27.6498 17.5587 27.5548 17.6367 27.4437 17.6827C27.3326 17.7287 27.2103 17.7408 27.0923 17.7173C26.9743 17.6939 26.866 17.6359 26.7809 17.5509C26.6959 17.4658 26.6379 17.3575 26.6145 17.2395C26.591 17.1215 26.6031 16.9992 26.6491 16.8881C26.6951 16.777 26.7731 16.682 26.8731 16.6152C26.9731 16.5484 27.0907 16.5127 27.2109 16.5127C27.3722 16.5127 27.5269 16.5768 27.641 16.6908C27.755 16.8049 27.8191 16.9596 27.8191 17.1209Z" fill="#33485D"/>
<path d="M8.765 17.1209C8.765 16.76 8.658 16.4073 8.45752 16.1072C8.25705 15.8072 7.9721 15.5734 7.63872 15.4353C7.30535 15.2972 6.9385 15.261 6.58459 15.3314C6.23068 15.4018 5.90559 15.5756 5.65043 15.8308C5.39528 16.0859 5.22151 16.411 5.15112 16.7649C5.08072 17.1188 5.11685 17.4857 5.25494 17.8191C5.39303 18.1524 5.62688 18.4374 5.92691 18.6379C6.22694 18.8383 6.57968 18.9453 6.94053 18.9453C7.42441 18.9453 7.88847 18.7531 8.23062 18.411C8.57278 18.0688 8.765 17.6047 8.765 17.1209ZM6.94053 17.729C6.82025 17.729 6.70267 17.6934 6.60266 17.6265C6.50264 17.5597 6.4247 17.4647 6.37867 17.3536C6.33264 17.2425 6.32059 17.1202 6.34406 17.0022C6.36752 16.8842 6.42544 16.7759 6.5105 16.6908C6.59555 16.6058 6.70391 16.5479 6.82188 16.5244C6.93985 16.5009 7.06213 16.513 7.17326 16.559C7.28439 16.605 7.37937 16.683 7.44619 16.783C7.51302 16.883 7.54869 17.0006 7.54869 17.1209C7.54869 17.2822 7.48461 17.4368 7.37056 17.5509C7.25651 17.6649 7.10182 17.729 6.94053 17.729Z" fill="#33485D"/>
<path d="M2.08243 17.5303L2.08243 16.3944L6.32296 16.3944L6.32296 17.5303L2.08243 17.5303Z" fill="#33485D"/>
<path d="M27.8286 17.5303L27.8286 16.3944L32.0691 16.3944L32.0691 17.5303L27.8286 17.5303Z" fill="#33485D"/>
<path fill-rule="evenodd" clip-rule="evenodd" d="M17.0379 4.58117C10.2001 4.58117 4.65701 10.1243 4.65701 16.962C4.65701 23.7998 10.2001 29.3429 17.0379 29.3429C23.8756 29.3429 29.4187 23.7998 29.4187 16.962C29.4187 10.1243 23.8756 4.58117 17.0379 4.58117ZM3.52115 16.962C3.52115 9.49695 9.57278 3.44531 17.0379 3.44531C24.5029 3.44531 30.5546 9.49695 30.5546 16.962C30.5546 24.4271 24.5029 30.4787 17.0379 30.4787C9.57278 30.4787 3.52115 24.4271 3.52115 16.962Z" fill="#33485D"/>
<path d="M16.5079 1.96875H17.6437V6.20928H16.5079V1.96875Z" fill="#33485D"/>
</g>
<defs>
<clipPath id="clip0_424_926">
<rect width="34" height="34" fill="white"/>
</clipPath>
</defs>
</svg>
