<svg width="114" height="41" viewBox="0 0 114 41" fill="none" xmlns="http://www.w3.org/2000/svg">
<g clip-path="url(#clip0_256_8)">
<path fill-rule="evenodd" clip-rule="evenodd" d="M111.763 2.45285C110.368 1.06617 108.483 0.288086 106.519 0.288086C104.554 0.288086 102.67 1.06617 101.275 2.45285L76.3845 27.7887C74.9665 29.2535 74.1733 31.2143 74.1733 33.2554C74.1733 35.2965 74.9665 37.2573 76.3845 38.7221C77.0757 39.4396 77.904 40.0102 78.8199 40.3999C79.7359 40.7896 80.7207 40.9905 81.7157 40.9905C82.7107 40.9905 83.6956 40.7896 84.6115 40.3999C85.5274 40.0102 86.3557 39.4396 87.0469 38.7221L111.763 13.4212C113.183 11.9506 113.977 9.98393 113.977 7.93704C113.977 5.89015 113.183 3.92348 111.763 2.45285Z" fill="#34495E"/>
<path fill-rule="evenodd" clip-rule="evenodd" d="M51.7037 2.45283C52.3974 1.73971 53.2264 1.17297 54.142 0.786015C55.0576 0.399058 56.0412 0.199707 57.0349 0.199707C58.0285 0.199707 59.0121 0.399058 59.9277 0.786015C60.8433 1.17297 61.6723 1.73971 62.366 2.45283L87.0818 27.7887C88.4998 29.2535 89.293 31.2143 89.293 33.2554C89.293 35.2965 88.4998 37.2573 87.0818 38.7221C86.3906 39.4395 85.5623 40.0102 84.6464 40.3999C83.7305 40.7896 82.7456 40.9905 81.7506 40.9905C80.7556 40.9905 79.7707 40.7896 78.8548 40.3999C77.9389 40.0102 77.1106 39.4395 76.4194 38.7221L51.7037 13.4212C50.2752 11.9548 49.4755 9.98658 49.4755 7.93702C49.4755 5.88746 50.2752 3.91919 51.7037 2.45283Z" fill="#34495E"/>
<path fill-rule="evenodd" clip-rule="evenodd" d="M62.4011 2.45297C61.7099 1.73548 60.8816 1.16487 59.9657 0.775144C59.0497 0.38542 58.0649 0.18457 57.0699 0.18457C56.0748 0.18457 55.09 0.38542 54.1741 0.775144C53.2582 1.16487 52.4299 1.73548 51.7387 2.45297L27.023 27.7889C25.6049 29.2536 24.8118 31.2144 24.8118 33.2555C24.8118 35.2966 25.6049 37.2575 27.023 38.7222C27.7167 39.4353 28.5457 40.0021 29.4613 40.389C30.3769 40.776 31.3605 40.9753 32.3541 40.9753C33.3478 40.9753 34.3314 40.776 35.247 40.389C36.1626 40.0021 36.9916 39.4353 37.6853 38.7222L62.4011 13.3863C63.8191 11.9216 64.6123 9.96073 64.6123 7.91964C64.6123 5.87854 63.8191 3.91771 62.4011 2.45297Z" fill="#34495E"/>
<path fill-rule="evenodd" clip-rule="evenodd" d="M2.2024 2.27803C2.8961 1.5649 3.72517 0.998167 4.64076 0.61121C5.55636 0.224254 6.53995 0.0249023 7.53359 0.0249023C8.52723 0.0249023 9.51083 0.224254 10.4264 0.61121C11.342 0.998167 12.1711 1.5649 12.8648 2.27803L37.5805 27.6139C38.9986 29.0787 39.7917 31.0395 39.7917 33.0806C39.7917 35.1217 38.9986 37.0825 37.5805 38.5473C36.8868 39.2604 36.0577 39.8271 35.1421 40.2141C34.2266 40.601 33.243 40.8004 32.2493 40.8004C31.2557 40.8004 30.2721 40.601 29.3565 40.2141C28.4409 39.8271 27.6118 39.2604 26.9181 38.5473L2.2024 13.2114C0.78434 11.7466 -0.00878906 9.78579 -0.00878906 7.74469C-0.00878906 5.7036 0.78434 3.74277 2.2024 2.27803Z" fill="#34495E"/>
</g>
<defs>
<clipPath id="clip0_256_8">
<rect width="114" height="41" fill="white"/>
</clipPath>
</defs>
</svg>
