<svg width="19" height="18" viewBox="0 0 19 18" fill="none" xmlns="http://www.w3.org/2000/svg">
<g clip-path="url(#clip0_252_47)">
<path d="M18.656 16.8296L13.3463 11.6007C14.3534 10.3764 14.9596 8.81977 14.9596 7.12503C14.9596 3.19631 11.7139 0 7.72443 0C3.73496 0 0.489258 3.19631 0.489258 7.12503C0.489258 11.0537 3.73499 14.2501 7.72446 14.2501C9.44541 14.2501 11.0261 13.653 12.2694 12.6613L17.5791 17.8902C17.7279 18.0366 17.9689 18.0366 18.1177 17.8902L18.6561 17.3599C18.8048 17.2135 18.8048 16.976 18.656 16.8296ZM7.72446 12.75C4.57469 12.75 2.01247 10.2268 2.01247 7.12503C2.01247 4.02322 4.57469 1.50001 7.72446 1.50001C10.8742 1.50001 13.4365 4.02322 13.4365 7.12503C13.4365 10.2268 10.8742 12.75 7.72446 12.75Z" fill="#33485D"/>
</g>
<defs>
<clipPath id="clip0_252_47">
<rect width="18.2783" height="18" fill="white" transform="translate(0.489258)"/>
</clipPath>
</defs>
</svg>
