<svg width="35" height="34" viewBox="0 0 35 34" fill="none" xmlns="http://www.w3.org/2000/svg">
<path fill-rule="evenodd" clip-rule="evenodd" d="M18.6719 19.4143L18.6719 30.5923C18.6719 32.4742 17.1463 33.9999 15.2644 33.9999L7.91916 33.9999C6.03721 33.9999 4.51159 32.4742 4.51159 30.5923L4.51159 19.4435C4.51159 19.0105 4.5941 18.5815 4.75471 18.1794L9.20695 7.03369C9.95386 5.16386 11.7643 3.9375 13.7778 3.9375L17.2616 3.9375C20.6907 3.9375 23.0689 7.35621 21.8764 10.5713L18.7428 19.0193C18.6959 19.1457 18.6719 19.2794 18.6719 19.4143ZM17.5361 19.4143C17.5361 19.1446 17.5841 18.8771 17.6779 18.6243L20.8114 10.1763C21.7288 7.70314 19.8994 5.07336 17.2616 5.07336L13.7778 5.07336C12.229 5.07336 10.8363 6.01671 10.2618 7.45504L5.80953 18.6008C5.70245 18.8688 5.64744 19.1548 5.64744 19.4435L5.64744 30.5923C5.64744 31.8469 6.66452 32.864 7.91916 32.864L15.2644 32.864C16.519 32.864 17.5361 31.8469 17.5361 30.5923L17.5361 19.4143Z" fill="#33485D"/>
<path fill-rule="evenodd" clip-rule="evenodd" d="M35 21.2782L35 30.5922C35 32.4742 33.4744 33.9998 31.5924 33.9998L26.9733 33.9998C25.0913 33.9998 23.5657 32.4742 23.5657 30.5922L23.5657 21.2782C23.5657 19.3962 25.0913 17.8706 26.9733 17.8706L31.5924 17.8706C33.4744 17.8706 35 19.3962 35 21.2782ZM33.8641 21.2782C33.8641 20.0235 32.8471 19.0065 31.5924 19.0065L26.9733 19.0065C25.7187 19.0065 24.7016 20.0235 24.7016 21.2782L24.7016 30.5922C24.7016 31.8468 25.7187 32.8639 26.9733 32.8639L31.5924 32.8639C32.8471 32.8639 33.8641 31.8468 33.8641 30.5922L33.8641 21.2782Z" fill="#33485D"/>
<path d="M7.19754 5.0405L11.2421 4.96881L10.1767 6.1209L7.21583 6.17512C6.80004 6.18208 6.3955 6.31141 6.05284 6.54709C5.09042 7.20891 4.84677 8.52558 5.50857 9.48793L7.18371 11.927L6.86204 13.4683L4.5736 10.1307C4.21278 9.60504 4.01451 8.98486 4.00345 8.34737C3.97231 6.55218 5.40236 5.07164 7.19754 5.0405Z" fill="#33485D"/>
<path d="M22.4778 17.437L18.4861 18.0928L19.3738 16.7987L22.2957 16.3169C22.7061 16.2499 23.0877 16.0635 23.3926 15.7807C24.2492 14.9867 24.3 13.6486 23.506 12.7921L21.4958 10.6209L21.5912 9.04921L24.3382 12.0209C24.7712 12.4889 25.0571 13.0738 25.1602 13.703C25.4506 15.4749 24.2496 17.1466 22.4778 17.437Z" fill="#33485D"/>
<path d="M20.4216 2.4351L21.5137 6.33009L20.1297 5.59061L19.3285 2.7397C19.2166 2.33919 18.9892 1.98049 18.6746 1.70856C17.7909 0.944775 16.4554 1.04198 15.6917 1.92562L13.7555 4.16307L12.1828 4.24161L14.8334 1.18357C15.2507 0.701557 15.8006 0.352905 16.4146 0.181009C18.1435 -0.303061 19.9376 0.706132 20.4216 2.4351Z" fill="#33485D"/>
<path d="M2.69566 22.8013L5.50059 21.1873L5.08147 22.6995L3.23179 23.8014C2.86541 23.9981 2.56509 24.2985 2.3685 24.6649C1.81629 25.6942 2.20301 26.9761 3.23219 27.5283L5.08147 28.7015L5.50179 30.219L2.69566 28.528C2.13409 28.2261 1.67369 27.7657 1.37177 27.2041C0.521548 25.6227 1.11428 23.6515 2.69566 22.8013Z" fill="#33485D"/>
<path d="M20.9198 22.8013L18.1149 21.1873L18.534 22.6995L20.3837 23.8014C20.7501 23.9981 21.0504 24.2985 21.247 24.6649C21.7992 25.6942 21.4125 26.9761 20.3833 27.5283L18.534 28.7015L18.1137 30.219L20.9198 28.528C21.4814 28.2261 21.9418 27.7657 22.2437 27.2041C23.0939 25.6227 22.5012 23.6515 20.9198 22.8013Z" fill="#33485D"/>
<path fill-rule="evenodd" clip-rule="evenodd" d="M16.125 19.349L16.125 29.6838C16.125 30.7293 15.2774 31.5769 14.2319 31.5769L9.05502 31.5769C8.00949 31.5769 7.16192 30.7293 7.16192 29.6838L7.16192 19.3594C7.16192 18.9365 7.24064 18.5173 7.39406 18.1232L11.3452 7.974C11.7416 6.95576 12.7222 6.28516 13.8149 6.28516L17.1596 6.28516C19.0142 6.28516 20.2953 8.14092 19.6379 9.87502L16.1988 18.9463C16.15 19.075 16.125 19.2114 16.125 19.349ZM14.9892 19.349C14.9892 19.0738 15.0391 18.801 15.1367 18.5437L18.5758 9.47236C18.9514 8.48145 18.2194 7.42101 17.1596 7.42101L13.8149 7.42101C13.1905 7.42101 12.6301 7.80421 12.4036 8.38607L8.45254 18.5353C8.35026 18.798 8.29778 19.0775 8.29778 19.3594L8.29778 29.6838C8.29778 30.102 8.63681 30.4411 9.05502 30.4411L14.2319 30.4411C14.6501 30.4411 14.9892 30.102 14.9892 29.6838L14.9892 19.349Z" fill="#E67861"/>
<path d="M7.46484 8.78381L7.46484 7.64795L6.32899 7.64795L6.32899 8.78381L7.46484 8.78381Z" fill="#33485D"/>
<path d="M21.3755 13.3534L21.3755 14.4893L22.5113 14.4893L22.5113 13.3534L21.3755 13.3534Z" fill="#33485D"/>
<path d="M4.13293 26.2003L4.13293 25.0645L2.99708 25.0645L2.99708 26.2003L4.13293 26.2003Z" fill="#33485D"/>
<path d="M19.4825 26.2003L19.4825 25.0645L20.6184 25.0645L20.6184 26.2003L19.4825 26.2003Z" fill="#33485D"/>
<path d="M17.9147 3.10461L17.9147 1.96875L16.7789 1.96875L16.7789 3.10461L17.9147 3.10461Z" fill="#33485D"/>
<path d="M26.9733 31.5011L26.9733 30.3652L25.8374 30.3652L25.8374 31.5011L26.9733 31.5011Z" fill="#33485D"/>
<path fill-rule="evenodd" clip-rule="evenodd" d="M31.5925 26.9578L31.5925 24.9132C31.5925 23.8677 30.7449 23.0201 29.6994 23.0201L28.8664 23.0201C27.8209 23.0201 26.9733 23.8677 26.9733 24.9132L26.9733 26.9578C26.9733 28.0033 27.8209 28.8509 28.8664 28.8509L29.6994 28.8509C30.7449 28.8509 31.5925 28.0033 31.5925 26.9578ZM32.7283 24.9132C32.7283 23.2404 31.3722 21.8843 29.6994 21.8843L28.8664 21.8843C27.1936 21.8843 25.8375 23.2404 25.8375 24.9132L25.8375 26.9578C25.8375 28.6306 27.1936 29.9867 28.8664 29.9867L29.6994 29.9867C31.3722 29.9867 32.7283 28.6306 32.7283 26.9578L32.7283 24.9132Z" fill="#E67861"/>
<path d="M26.9733 21.5055L26.9733 20.3696L25.8374 20.3696L25.8374 21.5055L26.9733 21.5055Z" fill="#33485D"/>
<path d="M32.6526 31.5011L32.6526 30.3652L31.5167 30.3652L31.5167 31.5011L32.6526 31.5011Z" fill="#33485D"/>
<path d="M32.6526 21.5055L32.6526 20.3696L31.5167 20.3696L31.5167 21.5055L32.6526 21.5055Z" fill="#33485D"/>
</svg>
