<svg width="34" height="34" viewBox="0 0 34 34" fill="none" xmlns="http://www.w3.org/2000/svg">
<g clip-path="url(#clip0_424_1033)">
<path d="M21.2479 18.2075L21.2479 17.0728L20.1132 17.0728L20.1132 18.2075L21.2479 18.2075Z" fill="#33485D"/>
<path d="M9.93741 12.1932L8.5386 11.3618L7.97123 12.3445L9.37003 13.176L9.93741 12.1932Z" fill="#33485D"/>
<path d="M8.92597 13.9701L7.52716 13.1387L6.95978 14.1214L8.35859 14.9528L8.92597 13.9701Z" fill="#33485D"/>
<path d="M7.94272 15.786L6.54391 14.9546L5.97654 15.9373L7.37534 16.7687L7.94272 15.786Z" fill="#33485D"/>
<path d="M6.65653 17.6014L5.25772 16.77L4.69034 17.7527L6.08915 18.5842L6.65653 17.6014Z" fill="#33485D"/>
<path d="M5.59735 19.4169L4.19855 18.5854L3.63117 19.5682L5.02997 20.3996L5.59735 19.4169Z" fill="#33485D"/>
<path d="M28.3588 12.9121L28.3588 11.7773L27.224 11.7773L27.224 12.9121L28.3588 12.9121Z" fill="#33485D"/>
<path fill-rule="evenodd" clip-rule="evenodd" d="M27.8988 22.3386L22.1902 32.0578C21.2529 33.6537 19.1769 34.2005 17.5534 33.2791L8.69981 28.2545C7.0763 27.3331 6.52005 25.2925 7.45738 23.6966L13.1687 13.9729L19.1289 4.25671C20.084 2.69984 22.1312 2.18109 23.7329 3.09009L32.3022 7.95335C33.9148 8.86853 34.4763 10.8899 33.5607 12.4836L27.8988 22.3386ZM21.2103 31.5017L26.9162 21.7871L32.5755 11.9367C33.1859 10.8742 32.8116 9.52666 31.7365 8.91654L23.1672 4.05328C22.0994 3.44728 20.7346 3.79311 20.0979 4.83102L14.1432 14.5381L8.43725 24.2527C7.81236 25.3166 8.1832 26.6771 9.26554 27.2913L18.1191 32.3159C19.2015 32.9301 20.5854 32.5656 21.2103 31.5017Z" fill="#33485D"/>
<path fill-rule="evenodd" clip-rule="evenodd" d="M16.369 31.9707C16.2128 32.2367 15.8668 32.3278 15.5962 32.1742L4.81479 26.0556C3.44638 25.279 2.99054 23.551 3.80262 22.2186L16.1692 1.92858C16.9629 0.626314 18.6726 0.190551 20.01 0.949597L25.6049 4.12478C25.8755 4.27835 25.9682 4.61845 25.812 4.88443C25.6557 5.1504 25.3097 5.24153 25.0392 5.08797L19.4443 1.91278C18.6418 1.45736 17.616 1.71881 17.1398 2.50017L4.77322 22.7902C4.28597 23.5896 4.55947 24.6264 5.38052 25.0924L16.1619 31.211C16.4325 31.3646 16.5252 31.7047 16.369 31.9707Z" fill="#33485D"/>
<path fill-rule="evenodd" clip-rule="evenodd" d="M10.8018 26.0879L13.0602 27.4002L12.49 28.3813L10.2317 27.069C9.24027 26.4928 8.90196 25.2231 9.4753 24.2301L11.7644 20.2653L12.7521 18.7323L13.706 19.347L12.7333 20.8566L10.458 24.7974C10.1974 25.2488 10.3512 25.826 10.8018 26.0879Z" fill="#33485D"/>
<path fill-rule="evenodd" clip-rule="evenodd" d="M28.3199 17.5849L24.0078 24.9987L23.0269 24.4281L27.339 17.0144L28.3199 17.5849ZM23.2524 6.37813L22.401 5.9285C21.9527 5.69174 21.3975 5.85062 21.1423 6.28867L17.426 12.668L16.4455 12.0968L20.1618 5.71747C20.7232 4.75375 21.9447 4.40422 22.931 4.92509L23.7823 5.37472L23.2524 6.37813Z" fill="#E67861"/>
<path fill-rule="evenodd" clip-rule="evenodd" d="M21.5334 26.8668L19.4665 30.4468L14.4348 28.265L17.1281 23.6001L21.5334 26.8668ZM17.2665 22.29C16.9793 22.1242 16.6133 22.2223 16.4475 22.5095L13.15 28.2209C12.9842 28.508 13.0823 28.8741 13.3694 29.0399L19.3896 31.6503C19.6768 31.8161 20.0429 31.718 20.2086 31.4308L22.7567 27.0175C22.9225 26.7303 22.8244 26.3642 22.5372 26.1985L17.2665 22.29Z" fill="#33485D"/>
<path fill-rule="evenodd" clip-rule="evenodd" d="M5.80156 6.15967L8.9495 1.07733C9.12477 0.795902 9.49393 0.710089 9.77536 0.885359L15.5537 3.69535C15.8352 3.87062 15.921 4.23978 15.7457 4.52121L11.9567 10.8758C11.7814 11.1573 11.4123 11.2431 11.1309 11.0678L5.99354 6.98553C5.71211 6.81026 5.62629 6.4411 5.80156 6.15967ZM11.3035 9.75561L14.4769 4.43349L9.65723 2.08973L7.01823 6.35038L11.3035 9.75561Z" fill="#33485D"/>
<path fill-rule="evenodd" clip-rule="evenodd" d="M21.1284 20.2409L14.6614 17.359L17.3868 12.6175L23.1876 16.9189L21.1284 20.2409ZM24.3607 17.1802C24.5638 16.8284 24.4436 16.3799 24.0918 16.1767L17.6337 11.3878C17.2819 11.1847 16.8333 11.3049 16.6302 11.6567L13.4554 17.1802C13.2522 17.532 13.3724 17.9806 13.7243 18.1837L20.9154 21.3884C21.2672 21.5915 21.7157 21.4713 21.9189 21.1195L24.3607 17.1802Z" fill="#E67861"/>
<path fill-rule="evenodd" clip-rule="evenodd" d="M28.3907 14.8699L21.9238 11.9879L24.6492 7.24636L30.45 11.5478L28.3907 14.8699ZM31.6231 11.8091C31.8262 11.4573 31.706 11.0088 31.3542 10.8056L24.896 6.01672C24.5442 5.8136 24.0957 5.93379 23.8926 6.2856L20.7177 11.8091C20.5146 12.1609 20.6348 12.6095 20.9866 12.8126L28.1777 16.0173C28.5295 16.2204 28.9781 16.1002 29.1812 15.7484L31.6231 11.8091Z" fill="#E67861"/>
<path fill-rule="evenodd" clip-rule="evenodd" d="M19.1884 27.9685C18.9691 28.3484 18.4802 28.4794 18.1003 28.2601C17.7204 28.0408 17.5894 27.5518 17.8087 27.1719C18.028 26.7921 18.517 26.661 18.8969 26.8804C19.2768 27.0997 19.4078 27.5886 19.1884 27.9685ZM17.5329 29.2428C18.4555 29.7755 19.6385 29.4585 20.1712 28.5359C20.7039 27.6133 20.3869 26.4303 19.4643 25.8976C18.5416 25.365 17.3587 25.6819 16.826 26.6046C16.2933 27.5272 16.6103 28.7101 17.5329 29.2428Z" fill="#E67861"/>
</g>
<defs>
<clipPath id="clip0_424_1033">
<rect width="34" height="34" fill="white"/>
</clipPath>
</defs>
</svg>
