<svg width="34" height="34" viewBox="0 0 34 34" fill="none" xmlns="http://www.w3.org/2000/svg">
<g clip-path="url(#clip0_424_727)">
<path fill-rule="evenodd" clip-rule="evenodd" d="M9.11756 1.03159L15.7036 7.61761C17.0343 8.94835 17.0343 11.1059 15.7036 12.4366L12.4373 15.7029C11.1066 17.0336 8.94904 17.0336 7.6183 15.7029L1.03228 9.11686C-0.298458 7.78612 -0.298458 5.62857 1.03228 4.29783L4.29852 1.03159C5.62926 -0.299152 7.78682 -0.299151 9.11756 1.03159ZM8.31438 1.83476C7.42722 0.947602 5.98885 0.947602 5.10169 1.83476L1.83546 5.101C0.948295 5.98816 0.948295 7.42653 1.83545 8.31369L8.42147 14.8997C9.30863 15.7869 10.747 15.7869 11.6342 14.8997L14.9004 11.6335C15.7876 10.7463 15.7876 9.30794 14.9004 8.42078L8.31438 1.83476Z" fill="#33485D"/>
<path fill-rule="evenodd" clip-rule="evenodd" d="M10.9968 15.6405L10.2817 16.523L11.911 17.8433C12.369 18.2756 13.0899 18.2676 13.5382 17.8193L13.5387 17.8188L17.7592 13.5776C17.7594 13.5774 17.7596 13.5772 17.7597 13.577C18.2067 13.1295 18.2153 12.4108 17.7854 11.9528L16.5225 10.3618L15.6329 11.068L16.933 12.7059L16.956 12.7289C16.9689 12.7418 16.9689 12.7615 16.956 12.7744L16.9555 12.7749L12.735 17.0161C12.7349 17.0162 12.7349 17.0163 12.7348 17.0163C12.7219 17.029 12.7023 17.0289 12.6895 17.0161L12.6685 16.9951L10.9968 15.6405Z" fill="#33485D"/>
<path fill-rule="evenodd" clip-rule="evenodd" d="M5.1368 2.94075C5.95003 2.12752 7.26854 2.12752 8.08176 2.94075L12.7402 7.59915C13.5534 8.41238 13.5534 9.73089 12.7402 10.5441L10.5448 12.7395C9.73159 13.5527 8.41309 13.5527 7.59986 12.7395L2.94147 8.08106C2.12824 7.26782 2.12824 5.94932 2.94147 5.13609L5.1368 2.94075ZM7.27859 3.74392C6.90894 3.37427 6.30962 3.37427 5.93997 3.74392L3.74464 5.93926C3.37499 6.30891 3.37499 6.90823 3.74464 7.27788L8.40303 11.9363C8.77268 12.3059 9.372 12.3059 9.74165 11.9363L11.937 9.74095C12.3066 9.3713 12.3066 8.77198 11.937 8.40233L7.27859 3.74392Z" fill="#E67861"/>
<path d="M10.6704 14.3144L9.86719 13.5112L9.06401 14.3144L9.86719 15.1176L10.6704 14.3144Z" fill="#33485D"/>
<path d="M15.0648 9.91987L14.2616 9.1167L13.4585 9.91987L14.2616 10.723L15.0648 9.91987Z" fill="#33485D"/>
<path d="M13.5412 11.6313L12.738 10.8281L11.1317 12.4345L11.9349 13.2377L13.5412 11.6313Z" fill="#33485D"/>
<path fill-rule="evenodd" clip-rule="evenodd" d="M26.2554 30.9521L25.5403 31.8346L27.1666 33.1525C27.6246 33.5848 28.3455 33.5768 28.7938 33.1285L28.7943 33.128L33.0148 28.8868C33.015 28.8866 33.0152 28.8864 33.0153 28.8862C33.4623 28.4386 33.4709 27.72 33.041 27.262L31.7677 25.6578L30.8781 26.364L32.1886 28.0151L32.2116 28.0381C32.2245 28.0509 32.2245 28.0707 32.2116 28.0836L32.2111 28.0841L27.9906 32.3253C27.9906 32.3254 27.9905 32.3254 27.9904 32.3255C27.9776 32.3382 27.9579 32.3381 27.9451 32.3253L27.9241 32.3043L26.2554 30.9521Z" fill="#33485D"/>
<path fill-rule="evenodd" clip-rule="evenodd" d="M24.4879 16.4779L31.0739 23.0639C32.4046 24.3946 32.4046 26.5522 31.0739 27.8829L27.8076 31.1492C26.4769 32.4799 24.3193 32.4799 22.9886 31.1492L16.4026 24.5632C15.0718 23.2324 15.0718 21.0749 16.4026 19.7441L19.6688 16.4779C20.9996 15.1471 23.1571 15.1471 24.4879 16.4779ZM23.6847 17.2811C22.7975 16.3939 21.3592 16.3939 20.472 17.2811L17.2058 20.5473C16.3186 21.4345 16.3186 22.8728 17.2058 23.76L23.7918 30.346C24.6789 31.2332 26.1173 31.2332 27.0045 30.346L30.2707 27.0798C31.1579 26.1926 31.1579 24.7542 30.2707 23.8671L23.6847 17.2811Z" fill="#33485D"/>
<path fill-rule="evenodd" clip-rule="evenodd" d="M26.0942 22.9034L24.6485 21.4577C23.9092 20.7184 22.7106 20.7184 21.9713 21.4577L21.3823 22.0467C20.643 22.786 20.643 23.9846 21.3823 24.7239L22.828 26.1696C23.5673 26.9089 24.7659 26.9089 25.5052 26.1696L26.0942 25.5806C26.8335 24.8413 26.8335 23.6427 26.0942 22.9034ZM25.4517 20.6545C24.2688 19.4716 22.351 19.4716 21.1681 20.6545L20.5791 21.2435C19.3962 22.4264 19.3962 24.3442 20.5791 25.5271L22.0248 26.9728C23.2077 28.1557 25.1255 28.1557 26.3084 26.9728L26.8974 26.3838C28.0803 25.2009 28.0803 23.2831 26.8974 22.1002L25.4517 20.6545Z" fill="#E67861"/>
<path d="M26.0407 29.3823L25.2375 28.5791L24.4343 29.3823L25.2375 30.1854L26.0407 29.3823Z" fill="#33485D"/>
<path d="M18.9727 22.3144L18.1696 21.5112L17.3664 22.3144L18.1696 23.1176L18.9727 22.3144Z" fill="#33485D"/>
<path d="M30.0565 25.3667L29.2534 24.5635L28.4502 25.3667L29.2534 26.1698L30.0565 25.3667Z" fill="#33485D"/>
<path d="M22.9886 18.2988L22.1854 17.4956L21.3822 18.2988L22.1854 19.102L22.9886 18.2988Z" fill="#33485D"/>
<path fill-rule="evenodd" clip-rule="evenodd" d="M4.87702 25.4226L9.57041 29.8733C9.88221 30.1689 10.3728 30.1624 10.6766 29.8586C10.9805 29.5547 10.987 29.0642 10.6913 28.7523L6.2407 24.059L7.0649 23.2774L11.5155 27.9708C12.2348 28.7293 12.2189 29.9226 11.4798 30.6618C10.7407 31.4009 9.54731 31.4167 8.78884 30.6975L4.09545 26.2468L4.87702 25.4226Z" fill="#33485D"/>
<path d="M12.8404 29.3903L12.8404 28.2544L11.7046 28.2544L11.7046 29.3903L12.8404 29.3903Z" fill="#33485D"/>
<path d="M11.7159 28.2657L11.7159 27.1299L10.58 27.1299L10.58 28.2657L11.7159 28.2657Z" fill="#33485D"/>
<path d="M10.1628 32.0675L10.1628 30.9316L9.02698 30.9316L9.02698 32.0675L10.1628 32.0675Z" fill="#33485D"/>
<path d="M9.03876 30.9435L9.03876 29.8076L7.9029 29.8076L7.9029 30.9435L9.03876 30.9435Z" fill="#33485D"/>
<path fill-rule="evenodd" clip-rule="evenodd" d="M13.1909 33.2635L10.7465 30.819C10.5247 30.5972 10.5247 30.2376 10.7465 30.0158C10.9683 29.7941 11.3279 29.7941 11.5497 30.0158L13.9941 32.4603C14.2159 32.6821 14.2159 33.0417 13.9941 33.2635C13.7723 33.4852 13.4127 33.4852 13.1909 33.2635Z" fill="#33485D"/>
<path d="M9.74647 26.2883L10.5638 25.4995L7.40884 22.2301L6.59149 23.0189L9.74647 26.2883Z" fill="#33485D"/>
<path d="M6.19584 29.6606L6.9769 28.8359L3.67811 25.7117L2.89705 26.5364L6.19584 29.6606Z" fill="#33485D"/>
<path fill-rule="evenodd" clip-rule="evenodd" d="M5.25711 21.0535C4.60062 21.2584 3.8261 21.7294 3.11616 22.4394C2.40623 23.1493 1.93516 23.9238 1.73027 24.5803C1.51637 25.2657 1.62918 25.6643 1.80432 25.8395C1.97945 26.0146 2.37813 26.1274 3.06347 25.9135C3.71995 25.7086 4.49448 25.2375 5.20441 24.5276C5.91434 23.8177 6.38542 23.0432 6.59031 22.3867C6.80421 21.7013 6.6914 21.3027 6.51626 21.1275C6.34113 20.9524 5.94245 20.8396 5.25711 21.0535ZM4.9187 19.9692C5.75464 19.7083 6.69612 19.701 7.31943 20.3243C7.94275 20.9477 7.93549 21.8891 7.67459 22.7251C7.40468 23.5899 6.82061 24.5178 6.00759 25.3308C5.19456 26.1438 4.26667 26.7279 3.40187 26.9978C2.56593 27.2587 1.62445 27.2659 1.00114 26.6426C0.377832 26.0193 0.385091 25.0778 0.645989 24.2419C0.915895 23.3771 1.49997 22.4492 2.31299 21.6362C3.12602 20.8232 4.0539 20.2391 4.9187 19.9692Z" fill="#33485D"/>
<path fill-rule="evenodd" clip-rule="evenodd" d="M23.808 5.88601L28.5014 10.3366C28.8132 10.6323 29.3038 10.6258 29.6076 10.322C29.9115 10.0181 29.918 9.52753 29.6223 9.21572L25.1717 4.52233L25.9959 3.74075L30.4465 8.43415C31.1658 9.19263 31.1499 10.386 30.4108 11.1251C29.6717 11.8643 28.4783 11.8801 27.7198 11.1608L23.0264 6.71021L23.808 5.88601Z" fill="#33485D"/>
<path d="M31.7714 9.85362L31.7714 8.71777L30.6355 8.71777L30.6355 9.85362L31.7714 9.85362Z" fill="#33485D"/>
<path d="M30.6469 8.72911L30.6469 7.59326L29.511 7.59326L29.511 8.72911L30.6469 8.72911Z" fill="#33485D"/>
<path d="M29.0938 12.5309L29.0938 11.395L27.958 11.395L27.958 12.5309L29.0938 12.5309Z" fill="#33485D"/>
<path d="M27.9697 11.4064L27.9697 10.2705L26.8339 10.2705L26.8339 11.4064L27.9697 11.4064Z" fill="#33485D"/>
<path fill-rule="evenodd" clip-rule="evenodd" d="M32.7277 14.3326L29.6775 11.2824C29.4557 11.0606 29.4557 10.701 29.6775 10.4792C29.8992 10.2574 30.2588 10.2574 30.4806 10.4792L33.5308 13.5294C33.7526 13.7512 33.7526 14.1108 33.5308 14.3326C33.309 14.5544 32.9495 14.5544 32.7277 14.3326Z" fill="#33485D"/>
<path d="M28.6775 6.75212L29.4948 5.96338L26.3398 2.69399L25.5225 3.48274L28.6775 6.75212Z" fill="#33485D"/>
<path d="M25.1268 10.1245L25.9079 9.2998L22.6091 6.17559L21.828 7.00028L25.1268 10.1245Z" fill="#33485D"/>
<path fill-rule="evenodd" clip-rule="evenodd" d="M24.1881 1.51685C23.5316 1.72174 22.7571 2.19282 22.0471 2.90275C21.3372 3.61269 20.8661 4.38721 20.6612 5.0437C20.4473 5.72904 20.5601 6.12772 20.7353 6.30285C20.9104 6.47799 21.3091 6.5908 21.9944 6.3769C22.6509 6.17201 23.4254 5.70094 24.1354 4.991C24.8453 4.28107 25.3164 3.50654 25.5213 2.85006C25.7352 2.16471 25.6224 1.76604 25.4472 1.5909C25.2721 1.41577 24.8734 1.30296 24.1881 1.51685ZM23.8497 0.432575C24.6856 0.171676 25.6271 0.164418 26.2504 0.787729C26.8737 1.41104 26.8665 2.35252 26.6056 3.18846C26.3357 4.05326 25.7516 4.98115 24.9386 5.79418C24.1255 6.6072 23.1976 7.19128 22.3328 7.46118C21.4969 7.72208 20.5554 7.72934 19.9321 7.10603C19.3088 6.48272 19.316 5.54124 19.5769 4.70529C19.8469 3.84049 20.4309 2.91261 21.244 2.09958C22.057 1.28655 22.9849 0.702482 23.8497 0.432575Z" fill="#33485D"/>
</g>
<defs>
<clipPath id="clip0_424_727">
<rect width="34" height="34" fill="white"/>
</clipPath>
</defs>
</svg>
