<svg width="34" height="34" viewBox="0 0 34 34" fill="none" xmlns="http://www.w3.org/2000/svg">
<g clip-path="url(#clip0_424_1138)">
<path fill-rule="evenodd" clip-rule="evenodd" d="M31.7872 28.7053L30.996 29.9967C29.5759 32.3147 26.5457 33.0426 24.2277 31.6225L22.9363 30.8313C20.6183 29.4113 19.8904 26.381 21.3105 24.063L22.1017 22.7717C23.5217 20.4537 26.552 19.7258 28.87 21.1459L30.1614 21.937C32.4793 23.3571 33.2072 26.3874 31.7872 28.7053ZM30.8186 28.112C31.911 26.3289 31.3511 23.9979 29.568 22.9056L28.2766 22.1144C26.4936 21.0221 24.1626 21.582 23.0702 23.365L22.2791 24.6564C21.1867 26.4395 21.7466 28.7704 23.5297 29.8628L24.8211 30.654C26.6041 31.7463 28.9351 31.1864 30.0275 29.4034L30.8186 28.112Z" fill="#E67861"/>
<path fill-rule="evenodd" clip-rule="evenodd" d="M28.2881 27.894L28.565 27.4421C29.1112 26.5505 28.8313 25.385 27.9397 24.8389L27.2295 24.4037C26.3379 23.8576 25.1725 24.1375 24.6263 25.029L24.3494 25.481C23.8032 26.3725 24.0831 27.538 24.9747 28.0842L25.6849 28.5193C26.5765 29.0655 27.7419 28.7856 28.2881 27.894ZM29.5336 28.0354C30.4075 26.609 29.9595 24.7442 28.5331 23.8703L27.8228 23.4352C26.3964 22.5613 24.5316 23.0092 23.6577 24.4357L23.3808 24.8876C22.5069 26.3141 22.9549 28.1789 24.3813 29.0528L25.0916 29.4879C26.518 30.3618 28.3828 29.9139 29.2567 28.4874L29.5336 28.0354Z" fill="#33485D"/>
<path d="M23.7675 32.2288L24.3609 31.2603L23.3924 30.6669L22.799 31.6354L23.7675 32.2288Z" fill="#E67861"/>
<path d="M29.8595 22.285L30.4529 21.3164L29.4843 20.723L28.8909 21.6916L29.8595 22.285Z" fill="#E67861"/>
<path d="M32.4821 22.1509L32.485 26.6853L31.4145 25.538L31.3493 22.0855C31.3729 21.6704 31.2737 21.2574 31.0639 20.8983C30.4748 19.8898 29.2442 19.5894 28.2357 20.1785L25.0302 21.7155L23.5167 21.2812L27.6635 19.1988C28.2143 18.8777 28.8474 18.7256 29.484 18.7615C31.2766 18.8626 32.5833 20.3582 32.4821 22.1509Z" fill="#E67861"/>
<path d="M25.4688 33.5983L29.5099 31.5413L28.0015 31.1087L24.8961 32.6187C24.537 32.8283 24.124 32.9275 23.7088 32.9037C22.5427 32.8369 21.7162 31.877 21.783 30.711L21.6963 27.1571L20.6219 26.0059L20.6502 30.6462C20.6143 31.2828 20.7664 31.9159 21.0875 32.4667C21.9918 34.0178 23.9177 34.5026 25.4688 33.5983Z" fill="#E67861"/>
<path fill-rule="evenodd" clip-rule="evenodd" d="M12.7349 10.053L11.9438 11.3444C10.5237 13.6624 7.49344 14.3902 5.17548 12.9702L3.88409 12.179C1.56612 10.7589 0.83824 7.72867 2.25831 5.4107L3.04947 4.11931C4.46954 1.80134 7.49981 1.07346 9.81778 2.49353L11.1092 3.28469C13.4271 4.70476 14.155 7.73504 12.7349 10.053ZM11.7664 9.45963C12.8588 7.67658 12.2989 5.3456 10.5158 4.25324L9.22441 3.46208C7.44136 2.36972 5.11038 2.92963 4.01802 4.71268L3.22686 6.00407C2.1345 7.78712 2.69441 10.1181 4.47745 11.2105L5.76885 12.0016C7.5519 13.094 9.88288 12.5341 10.9752 10.751L11.7664 9.45963Z" fill="#33485D"/>
<path fill-rule="evenodd" clip-rule="evenodd" d="M9.23598 9.24122L9.51289 8.78923C10.0591 7.89771 9.77911 6.73222 8.88759 6.18604L8.17732 5.7509C7.2858 5.20472 6.12031 5.48467 5.57412 6.3762L5.29722 6.82818C4.75104 7.71971 5.03099 8.8852 5.92252 9.43138L6.63279 9.86651C7.52431 10.4127 8.6898 10.1327 9.23598 9.24122ZM10.4814 9.3826C11.3553 7.95616 10.9074 6.09138 9.48096 5.21749L8.77069 4.78235C7.34425 3.90846 5.47947 4.35639 4.60558 5.78283L4.32867 6.23482C3.45478 7.66125 3.90271 9.52604 5.32915 10.3999L6.03942 10.8351C7.46585 11.709 9.33064 11.261 10.2045 9.83459L10.4814 9.3826Z" fill="#E67861"/>
<path d="M4.71532 13.5765L5.30869 12.6079L4.34014 12.0145L3.74677 12.9831L4.71532 13.5765Z" fill="#33485D"/>
<path d="M10.8072 3.63261L11.4006 2.66406L10.432 2.07069L9.83866 3.03924L10.8072 3.63261Z" fill="#33485D"/>
<path d="M13.43 3.49802L13.4328 8.03251L12.3623 6.88514L12.2971 3.43272C12.3208 3.01755 12.2216 2.60458 12.0118 2.24549C11.4226 1.23696 10.192 0.936575 9.18354 1.52572L5.97798 3.06266L4.46449 2.62837L8.61135 0.54596C9.16216 0.22483 9.79525 0.0727583 10.4318 0.108672C12.2244 0.209799 13.5311 1.70542 13.43 3.49802Z" fill="#33485D"/>
<path d="M6.41662 14.946L10.4577 12.889L8.94928 12.4564L5.84388 13.9663C5.48477 14.176 5.0718 14.2752 4.6566 14.2514C3.4905 14.1846 2.66395 13.2247 2.73077 12.0587L2.64406 8.50474L1.56972 7.35363L1.59801 11.9939C1.5621 12.6305 1.71417 13.2636 2.0353 13.8144C2.9396 15.3655 4.86553 15.8503 6.41662 14.946Z" fill="#33485D"/>
<path d="M15.761 24.6652C15.7542 24.5853 15.7446 24.5059 15.7355 24.4266C15.7191 24.2968 15.6987 24.1676 15.6789 24.039C15.6517 23.8837 15.6188 23.7307 15.582 23.5794C15.5559 23.4712 15.531 23.363 15.4998 23.2553L15.4941 23.2383C15.4341 23.0343 15.3632 22.8348 15.2862 22.6382C15.2754 22.611 15.2669 22.5815 15.2556 22.5549C15.1723 22.3498 15.0788 22.1503 14.9779 21.9542C14.97 21.9384 14.9632 21.9214 14.9547 21.9055C14.8481 21.7026 14.7325 21.5088 14.6084 21.315C14.6022 21.306 14.5971 21.2963 14.5909 21.2867C14.4679 21.0997 14.3364 20.9195 14.1976 20.7444C14.1834 20.7291 14.1738 20.7138 14.1625 20.7002C14.0344 20.5415 13.8984 20.3902 13.7584 20.2429C13.7307 20.214 13.7057 20.1828 13.6774 20.1545C13.5584 20.0332 13.432 19.9199 13.3045 19.8071C13.2479 19.7578 13.1969 19.7051 13.1396 19.657C13.0399 19.5737 12.9339 19.4989 12.8302 19.4207C12.7396 19.3527 12.6523 19.2813 12.5588 19.2178C12.4766 19.1611 12.3888 19.1135 12.3055 19.0614C12.1922 18.9917 12.0856 18.918 11.9706 18.8551C11.9621 18.85 11.953 18.8466 11.9445 18.8421C11.8992 18.8172 11.8505 18.7973 11.8046 18.7735C11.6425 18.6897 11.4793 18.6075 11.3116 18.5361C11.2407 18.5055 11.1659 18.4794 11.0934 18.4534C10.9461 18.3967 10.7999 18.34 10.6491 18.2907C10.5636 18.2635 10.4752 18.2437 10.3879 18.2199C10.2468 18.1808 10.1046 18.1406 9.96178 18.11C9.86431 18.089 9.76458 18.076 9.66598 18.059C9.52998 18.0363 9.39454 18.0119 9.25741 17.9966C9.14408 17.9836 9.02678 17.9791 8.91118 17.9711C8.79558 17.9632 8.66921 17.9547 8.54681 17.953C8.50714 17.953 8.46804 17.9468 8.42781 17.9468C8.32014 17.9468 8.21474 17.9581 8.10821 17.9632C8.02321 17.9672 7.93821 17.9689 7.85264 17.9757C7.66451 17.9904 7.47978 18.0142 7.29618 18.0431C7.25481 18.0493 7.21344 18.0544 7.17151 18.0618C6.95767 18.0996 6.74729 18.146 6.54024 18.2012C6.52664 18.2046 6.51304 18.2063 6.50001 18.2097L6.48018 18.2159C6.25882 18.2771 6.04193 18.3482 5.82964 18.429L5.77298 18.4483C5.56069 18.531 5.35286 18.623 5.14964 18.7242C5.13208 18.7333 5.11451 18.7407 5.09751 18.7497C4.89861 18.8506 4.70594 18.9611 4.51838 19.079C4.49684 19.0926 4.47531 19.1045 4.45434 19.1181C4.27754 19.2314 4.10698 19.3538 3.94094 19.4819C3.91034 19.5057 3.87804 19.5272 3.84801 19.5516C3.69954 19.6694 3.55788 19.7952 3.41961 19.9239C3.37541 19.9647 3.33008 20.0026 3.28758 20.044C3.17084 20.1573 3.06091 20.2786 2.95154 20.3999C2.89488 20.4633 2.83821 20.5234 2.78154 20.588C2.69428 20.6923 2.61154 20.8028 2.53278 20.9116C2.46704 20.9988 2.39791 21.0816 2.33614 21.1745C2.26758 21.2742 2.20808 21.3802 2.14461 21.4839C2.08114 21.5876 2.02221 21.6709 1.96838 21.7672C1.96441 21.7746 1.96158 21.7825 1.95761 21.7893C1.82614 22.0328 1.70842 22.2835 1.60514 22.5402C1.57624 22.611 1.55301 22.6824 1.52638 22.7538C1.45328 22.9516 1.38754 23.1505 1.33088 23.3579C1.30878 23.4389 1.28781 23.5194 1.26798 23.601C1.21924 23.8072 1.18014 24.0163 1.14841 24.2283C1.13708 24.3036 1.12291 24.3779 1.11441 24.4549C1.07977 24.7396 1.06185 25.0261 1.06058 25.3129C1.06058 25.5288 1.07361 25.7447 1.09344 25.9606C1.10024 26.0405 1.10988 26.1198 1.11894 26.1991C1.13538 26.3289 1.15578 26.4581 1.17561 26.5867C1.20281 26.742 1.23568 26.895 1.27251 27.0463C1.29858 27.1545 1.32351 27.2628 1.35468 27.3704L1.36034 27.3874C1.42098 27.592 1.49181 27.792 1.56888 27.9887C1.57908 28.0159 1.58758 28.0453 1.59834 28.0703C1.68221 28.2765 1.77628 28.4777 1.87771 28.6743C1.88564 28.6891 1.89188 28.7044 1.89924 28.7191C2.00691 28.9239 2.12343 29.1224 2.24888 29.3147C2.25398 29.3226 2.25794 29.3305 2.26304 29.3379C2.38714 29.5272 2.52031 29.7096 2.65971 29.887C2.66934 29.8989 2.67784 29.9114 2.68748 29.9233C2.81668 30.0842 2.95494 30.2378 3.09774 30.3874C3.12268 30.414 3.14591 30.444 3.17198 30.469C3.29324 30.5931 3.42244 30.7087 3.55278 30.8237C3.60548 30.8707 3.65534 30.9212 3.70974 30.9665C3.81231 31.0526 3.92224 31.1303 4.02991 31.2107C4.11661 31.2759 4.19991 31.345 4.29058 31.4062C4.38124 31.4674 4.46568 31.5139 4.55294 31.5683C4.66174 31.6357 4.76771 31.7077 4.87991 31.7695C4.88728 31.7734 4.89521 31.7763 4.90201 31.7802C5.14546 31.9117 5.39614 32.0294 5.65284 32.1327C5.72368 32.1616 5.79508 32.1848 5.86648 32.2115C6.06424 32.2846 6.26314 32.3503 6.47054 32.407C6.55158 32.4291 6.63204 32.45 6.71364 32.4699C6.91991 32.5186 7.12901 32.5577 7.34094 32.5894C7.41631 32.6008 7.49054 32.6149 7.56761 32.6234C7.85279 32.6589 8.13987 32.6776 8.42724 32.6795C8.64314 32.6795 8.85904 32.6665 9.07494 32.6467C9.15484 32.6399 9.23418 32.6302 9.31351 32.6212C9.44328 32.6047 9.57248 32.5843 9.70111 32.5645C9.85638 32.5373 10.0094 32.5044 10.1607 32.4676C10.2683 32.4415 10.3766 32.4172 10.4837 32.386L10.5007 32.3803C10.7047 32.3203 10.9041 32.2494 11.1008 32.1724C11.128 32.1616 11.1574 32.1531 11.1841 32.1418C11.3886 32.059 11.5881 31.9655 11.783 31.8652L11.8335 31.8409C12.0352 31.7347 12.2309 31.6199 12.4205 31.4963C12.4313 31.4895 12.4421 31.4839 12.4528 31.4765C12.6381 31.3552 12.8161 31.2249 12.9895 31.0878C13.0053 31.0747 13.0229 31.0634 13.0388 31.0504C13.1946 30.9251 13.3425 30.7914 13.487 30.6537C13.5193 30.6237 13.5533 30.597 13.585 30.5647C13.7023 30.4514 13.8117 30.3262 13.9216 30.2032C13.9749 30.1465 14.031 30.0899 14.082 30.027C14.1608 29.9323 14.2322 29.8315 14.3087 29.7329C14.3852 29.6343 14.456 29.5447 14.5234 29.4456C14.5727 29.373 14.6152 29.296 14.6623 29.2189C14.7376 29.0988 14.8175 28.9809 14.8889 28.8557C14.8929 28.8483 14.8957 28.8404 14.8997 28.833C15.0311 28.59 15.1486 28.3397 15.2516 28.0833C15.2805 28.0125 15.3037 27.9405 15.3304 27.8691C15.406 27.6716 15.4711 27.4702 15.5259 27.265C15.548 27.184 15.5689 27.1041 15.5888 27.0225C15.6375 26.8162 15.6766 26.6066 15.7083 26.3941C15.7197 26.3193 15.7338 26.2456 15.7423 26.1702C15.7762 25.8857 15.7934 25.5994 15.7939 25.3129C15.7939 25.097 15.7809 24.8811 15.761 24.6652ZM11.8505 22.6637C11.876 22.6314 11.8969 22.5963 11.9207 22.5628C11.9604 22.5062 12.0018 22.454 12.0341 22.3962C12.0584 22.3571 12.0783 22.3152 12.1004 22.2744C12.1304 22.2177 12.1621 22.1673 12.1882 22.1112C12.2086 22.0676 12.2245 22.0222 12.242 21.978C12.2653 21.9214 12.2896 21.8675 12.3089 21.808C12.3242 21.7633 12.3344 21.7162 12.3474 21.6703C12.3639 21.6137 12.382 21.557 12.395 21.4958C12.4052 21.4488 12.4103 21.4012 12.4177 21.3541C12.4279 21.2946 12.4392 21.2357 12.4449 21.1756C12.4494 21.1269 12.4494 21.0787 12.4517 21.03C12.4545 20.9699 12.4591 20.9104 12.4579 20.8498C12.4579 20.8011 12.4511 20.7518 12.4477 20.7025C12.4443 20.6532 12.4438 20.5993 12.437 20.5478C12.454 20.5619 12.4693 20.5778 12.4857 20.5925C12.6627 20.7455 12.8309 20.9085 12.9895 21.0804C13.0218 21.115 13.0529 21.1496 13.0841 21.1847C13.4371 21.5826 13.7383 22.0236 13.9806 22.4971C13.993 22.522 14.0044 22.5475 14.0168 22.5725C14.1271 22.796 14.2236 23.0262 14.3058 23.2615C14.3121 23.2768 14.3206 23.2916 14.3234 23.3074L14.3223 23.3148L13.7539 24.0662C13.432 24.4933 12.9287 24.7449 12.3939 24.7462H10.0309C10.0213 24.719 10.0088 24.6935 9.99804 24.6669L9.98671 24.6397C9.97821 24.6198 9.97141 24.5994 9.96178 24.5796L11.6329 22.9085C11.71 22.8312 11.7827 22.7494 11.8505 22.6637ZM8.30031 19.0858C8.46238 19.0824 8.62388 19.0858 8.78481 19.0977C8.86584 19.1022 8.94801 19.1022 9.02848 19.1101C9.25522 19.1313 9.48054 19.1654 9.70338 19.2121C9.76344 19.2246 9.82124 19.2433 9.88074 19.2575C10.0507 19.2988 10.2207 19.3442 10.3862 19.3997C10.4627 19.4252 10.5369 19.4564 10.6129 19.4824C10.7599 19.5376 10.9047 19.5983 11.0475 19.6643C11.0917 19.6847 11.1353 19.7063 11.1795 19.7278L11.3133 20.6651C11.3878 21.1946 11.21 21.7284 10.8327 22.1072L9.16164 23.7783C9.14181 23.7687 9.12141 23.7619 9.10158 23.7534L9.07438 23.7421C9.04774 23.7313 9.02224 23.7188 8.99504 23.7092V21.0459C8.99356 20.8806 8.97762 20.7159 8.94744 20.5534C8.93951 20.5081 8.92931 20.4633 8.91911 20.4186C8.89142 20.2953 8.85543 20.1738 8.81144 20.0553C8.79784 20.0185 8.78708 19.9817 8.77234 19.946C8.71107 19.7998 8.63769 19.659 8.55304 19.5249C8.53491 19.4972 8.51338 19.4717 8.49638 19.4439C8.42335 19.3378 8.34309 19.2369 8.25611 19.1419C8.24138 19.1254 8.23004 19.1056 8.21474 19.0892C8.24138 19.0892 8.27084 19.0863 8.30031 19.0858ZM3.70408 21.2567V21.2578C3.86962 21.0666 4.04656 20.8854 4.23391 20.7155C4.26338 20.6889 4.29058 20.6588 4.32174 20.6356C4.75149 20.259 5.23061 19.9427 5.74578 19.6955L5.77241 19.683C6.03775 19.557 6.31174 19.4502 6.59238 19.3634L6.92104 19.5278C7.49819 19.8137 7.86256 20.4029 7.86058 21.047V23.7103C7.83338 23.72 7.80788 23.7324 7.78124 23.7432L7.75404 23.7545C7.73421 23.763 7.71381 23.7698 7.69398 23.7795L6.02288 22.1084C5.90069 21.989 5.76795 21.8809 5.62621 21.7854C5.60411 21.7701 5.58258 21.7542 5.55991 21.7395C5.42334 21.6516 5.27941 21.5759 5.12981 21.5128C5.10431 21.502 5.07881 21.4924 5.05274 21.4822C4.89762 21.42 4.73747 21.3715 4.57391 21.3371L4.54728 21.3332C4.38486 21.3029 4.2201 21.2868 4.05484 21.285C4.04124 21.285 4.02764 21.2805 4.01348 21.2805C3.99931 21.2805 3.99478 21.2805 3.98571 21.2805C3.91261 21.2805 3.83951 21.2873 3.76641 21.2941C3.73184 21.2941 3.69728 21.2941 3.66271 21.3009C3.67744 21.285 3.69104 21.2714 3.70408 21.2567ZM2.32028 25.7305V25.7345C2.28741 25.7724 2.25171 25.8087 2.22111 25.8478C2.20581 25.6687 2.19391 25.4925 2.19391 25.3129C2.19455 25.0856 2.20758 24.8587 2.23301 24.6329C2.23924 24.5762 2.25114 24.5195 2.25851 24.4663C2.28231 24.2963 2.30894 24.1263 2.34634 23.9625C2.36108 23.8945 2.38091 23.8288 2.39791 23.7613C2.43644 23.6123 2.47894 23.4644 2.52824 23.3182C2.55374 23.2423 2.58208 23.1675 2.61098 23.0915C2.66084 22.9606 2.71581 22.8314 2.77474 22.7039C2.79628 22.6569 2.81951 22.6099 2.84218 22.5634L3.77944 22.4297C4.30892 22.3546 4.84301 22.5325 5.22161 22.9102L6.89271 24.5813C6.88364 24.6006 6.87684 24.621 6.86834 24.638L6.85588 24.6674C6.84511 24.6935 6.83264 24.719 6.82358 24.7456H4.46058C4.35114 24.7458 4.24177 24.7522 4.13304 24.7649C4.09508 24.7694 4.05824 24.7791 4.01971 24.7847C3.95001 24.7961 3.87974 24.8057 3.81118 24.8221C3.76868 24.8323 3.72731 24.8471 3.68481 24.8595C3.62304 24.8771 3.56071 24.893 3.50064 24.9162C3.45701 24.9321 3.41508 24.9525 3.37258 24.9729C3.31591 24.9967 3.25924 25.0182 3.20258 25.046C3.15894 25.0675 3.11814 25.0936 3.07564 25.1174C3.02408 25.1463 2.97138 25.174 2.92151 25.2058C2.87164 25.2375 2.84048 25.2624 2.79968 25.2936C2.75888 25.3248 2.70448 25.3599 2.65914 25.3973C2.61381 25.4347 2.58491 25.4647 2.54581 25.4987C2.50671 25.5327 2.45854 25.5764 2.41831 25.6183C2.37808 25.6602 2.35371 25.692 2.32028 25.7305ZM5.00344 27.9626V27.9666C4.98248 27.9932 4.96548 28.0232 4.94678 28.0493C4.90258 28.1099 4.85724 28.17 4.81814 28.234C4.79718 28.2675 4.78074 28.3037 4.76148 28.3383C4.72804 28.395 4.69291 28.4573 4.66401 28.5191C4.64531 28.5587 4.63171 28.5995 4.61528 28.6398C4.59034 28.6993 4.56428 28.7588 4.54331 28.82C4.52914 28.8625 4.51951 28.9061 4.50761 28.9492C4.49004 29.0098 4.47078 29.0699 4.45774 29.1322C4.44811 29.1775 4.44301 29.2234 4.43564 29.2693C4.42544 29.33 4.41411 29.3906 4.40788 29.4524C4.40334 29.5 4.40334 29.5481 4.40108 29.5963C4.40108 29.6569 4.39371 29.717 4.39484 29.7771C4.39484 29.8269 4.40164 29.8762 4.40504 29.9261C4.40844 29.976 4.40901 30.0287 4.41581 30.0797C4.40051 30.0666 4.38634 30.0525 4.37161 30.0394C4.1924 29.8841 4.02212 29.7188 3.86161 29.5442C3.83101 29.5113 3.80041 29.4779 3.77038 29.4444C3.41791 29.0461 3.11708 28.605 2.87504 28.1315C2.86258 28.1077 2.85124 28.0827 2.83934 28.0584C2.72906 27.8343 2.6323 27.6038 2.54978 27.3682C2.54411 27.3529 2.53788 27.3381 2.53278 27.3223L3.10058 26.5595C3.42266 26.1326 3.92586 25.881 4.46058 25.8795H6.82358C6.83264 25.9062 6.84511 25.9317 6.85588 25.9577L6.86834 25.9872C6.87684 26.0065 6.88364 26.0269 6.89271 26.0439L5.22161 27.715C5.14419 27.7933 5.07137 27.876 5.00344 27.9626ZM8.85791 31.5241L8.85678 31.5281C8.64803 31.5431 8.43865 31.5471 8.22948 31.54C8.15014 31.54 8.07024 31.5337 7.99148 31.5281C7.78861 31.5141 7.58688 31.4901 7.38628 31.4561C7.33641 31.4476 7.28541 31.4431 7.23611 31.4334C6.98685 31.3847 6.74084 31.3207 6.49944 31.2419C6.44901 31.2255 6.40084 31.2051 6.35098 31.1852C6.16207 31.118 5.97584 31.0415 5.79224 30.9557C5.75258 30.9376 5.71404 30.9189 5.67494 30.8991L5.54234 29.9595C5.46776 29.4301 5.64562 28.8963 6.02288 28.5174L7.69398 26.8463C7.71381 26.8559 7.73421 26.8627 7.75461 26.8718L7.78124 26.8825C7.80731 26.8933 7.83338 26.9058 7.86058 26.9154V29.2795C7.86072 29.389 7.86717 29.4983 7.87984 29.6071C7.88438 29.6456 7.89401 29.6824 7.89968 29.7204C7.91101 29.7901 7.92064 29.8598 7.93708 29.9284C7.94728 29.972 7.96258 30.0139 7.97504 30.057C7.99261 30.1182 8.00848 30.1794 8.03171 30.2395C8.04758 30.2831 8.06854 30.325 8.08838 30.3687C8.11218 30.4253 8.13428 30.482 8.16148 30.5387C8.18301 30.5823 8.20908 30.6231 8.23288 30.6656C8.26178 30.7172 8.28954 30.7704 8.32128 30.8203C8.35301 30.8702 8.37794 30.9019 8.40968 30.9427C8.44141 30.9835 8.47598 31.0373 8.51224 31.0821C8.54851 31.1269 8.58081 31.1575 8.61538 31.1954C8.64994 31.2334 8.69188 31.2821 8.73381 31.3224C8.77574 31.3626 8.81031 31.3892 8.84714 31.4227C8.88398 31.4561 8.92138 31.4907 8.96048 31.5213C8.92591 31.5218 8.89134 31.5218 8.85791 31.5241ZM8.94971 25.5333C8.93016 25.5699 8.907 25.6045 8.88058 25.6364C8.84431 25.6869 8.80011 25.7311 8.74968 25.7673C8.71773 25.7938 8.68317 25.8169 8.64654 25.8365C8.50629 25.8953 8.3482 25.8953 8.20794 25.8365C8.17132 25.8169 8.13676 25.7938 8.10481 25.7673C8.05827 25.7344 8.01719 25.6945 7.98298 25.6489C7.95245 25.6144 7.92624 25.5764 7.90478 25.5356C7.84591 25.3953 7.84591 25.2372 7.90478 25.097C7.92582 25.0543 7.95209 25.0142 7.98298 24.978V24.9791C8.01719 24.9336 8.05827 24.8936 8.10481 24.8607C8.13676 24.8343 8.17132 24.8111 8.20794 24.7915C8.3482 24.7327 8.50629 24.7327 8.64654 24.7915C8.68317 24.8111 8.71773 24.8343 8.74968 24.8607C8.80011 24.8969 8.84431 24.9411 8.88058 24.9916C8.907 25.0235 8.93016 25.0581 8.94971 25.0947C9.00857 25.235 9.00857 25.3931 8.94971 25.5333ZM13.1453 29.3742L13.1442 29.3781C12.9912 29.5552 12.8283 29.7233 12.6563 29.8819C12.6217 29.9142 12.5871 29.9454 12.552 29.9765C12.1548 30.327 11.715 30.6259 11.243 30.8662L11.1676 30.9025C10.944 31.0128 10.714 31.1092 10.4786 31.1915C10.4633 31.1971 10.4485 31.2034 10.4327 31.2085L9.67391 30.6395C9.24686 30.3176 8.99526 29.8143 8.99391 29.2795V26.9165C9.02111 26.9069 9.04661 26.8944 9.07324 26.8837L9.10044 26.8723C9.12028 26.8638 9.14068 26.857 9.16051 26.8474L10.8316 28.5185C10.9538 28.6383 11.0865 28.7467 11.2283 28.8426L11.2906 28.8863C11.4272 28.9741 11.571 29.0499 11.7207 29.1129C11.7468 29.1243 11.7723 29.1345 11.7983 29.1447C11.9515 29.2057 12.1096 29.2535 12.2709 29.2875C12.2874 29.2909 12.3044 29.2926 12.3208 29.2954C12.4845 29.3266 12.6506 29.3431 12.8172 29.3447C12.8251 29.3447 12.8325 29.3447 12.8399 29.3447H12.8501C12.9638 29.3446 13.0773 29.3373 13.1901 29.3232C13.1759 29.3424 13.16 29.3577 13.1453 29.3742ZM14.6203 25.9997C14.6141 26.0563 14.6022 26.113 14.5943 26.1697C14.571 26.3397 14.5444 26.5046 14.5076 26.6695C14.4923 26.7386 14.4724 26.806 14.4549 26.874C14.4163 27.0219 14.375 27.1687 14.3257 27.3132C14.2996 27.3903 14.269 27.4662 14.2418 27.5399C14.1919 27.6702 14.1375 27.7983 14.0792 27.9252C14.0571 27.9728 14.0338 28.0193 14.0112 28.0663L13.0739 28.2C12.5445 28.2742 12.0108 28.0964 11.6317 27.7195L9.96065 26.0484C9.97028 26.0286 9.97708 26.0082 9.98558 25.9883L9.99691 25.9611C10.0077 25.9345 10.0201 25.909 10.0298 25.8818H12.3939C12.5033 25.8817 12.6127 25.8752 12.7214 25.8625C12.76 25.858 12.7968 25.8484 12.8348 25.8427C12.9045 25.8314 12.9742 25.8217 13.0427 25.8053C13.0864 25.7951 13.1283 25.7798 13.1714 25.7673C13.2326 25.7498 13.2938 25.7339 13.3538 25.7107C13.3975 25.6948 13.4394 25.6738 13.483 25.654C13.5397 25.6302 13.5964 25.6081 13.653 25.5809C13.6967 25.5594 13.7375 25.5333 13.78 25.5095C13.8315 25.4806 13.8848 25.4528 13.9347 25.4211C13.9845 25.3894 14.0163 25.3644 14.0571 25.3327C14.0979 25.301 14.1517 25.2664 14.1965 25.2301C14.2412 25.1939 14.2718 25.1616 14.3098 25.127C14.3478 25.0924 14.3965 25.0505 14.4367 25.0086C14.477 24.9666 14.5013 24.9338 14.5348 24.8952L14.5336 24.9015C14.5665 24.8629 14.6016 24.8272 14.6322 24.7881C14.6475 24.9638 14.6594 25.14 14.6594 25.3197C14.6588 25.5469 14.6458 25.7739 14.6203 25.9997Z" fill="#33485D"/>
<path d="M5.20303 18.213L5.76559 17.4884L8.47083 19.5886L7.90827 20.3132L5.20303 18.213Z" fill="#33485D"/>
<path d="M8.59287 30.9891L9.15542 30.2645L11.8607 32.3647L11.2981 33.0894L8.59287 30.9891Z" fill="#33485D"/>
<path d="M11.1814 17.9316L12.0916 17.8171L12.5194 21.215L11.6092 21.3296L11.1814 17.9316Z" fill="#33485D"/>
<path d="M4.54429 29.3627L5.45446 29.2481L5.88228 32.6461L4.97211 32.7607L4.54429 29.3627Z" fill="#33485D"/>
<path d="M1.17462 22.6393L1.06003 21.7291L4.458 21.3013L4.57259 22.2115L1.17462 22.6393Z" fill="#33485D"/>
<path d="M12.6057 29.2764L12.4911 28.3663L15.8891 27.9384L16.0037 28.8486L12.6057 29.2764Z" fill="#33485D"/>
<path d="M1.45598 28.6177L0.731358 28.0551L2.83157 25.3499L3.55619 25.9125L1.45598 28.6177Z" fill="#33485D"/>
<path d="M14.2321 25.2279L13.5075 24.6653L15.6077 21.9601L16.3323 22.5226L14.2321 25.2279Z" fill="#33485D"/>
<path d="M7.69674 17.2441L8.49335 16.7286L10.4178 19.7026L9.6212 20.2181L7.69674 17.2441Z" fill="#E67861"/>
<path d="M6.64552 30.8756L7.44213 30.3601L9.36659 33.3341L8.56998 33.8496L6.64552 30.8756Z" fill="#E67861"/>
<path d="M13.6299 19.0101L14.5577 19.2089L13.8156 22.6726L12.8878 22.4738L13.6299 19.0101Z" fill="#E67861"/>
<path d="M3.24773 27.9056L4.17552 28.1044L3.43337 31.5682L2.50559 31.3694L3.24773 27.9056Z" fill="#E67861"/>
<path d="M2.25261 20.1908L2.4514 19.263L5.91514 20.0052L5.71635 20.933L2.25261 20.1908Z" fill="#E67861"/>
<path d="M11.1482 30.5731L11.347 29.6453L14.8107 30.3874L14.6119 31.3152L11.1482 30.5731Z" fill="#E67861"/>
<path d="M0.486666 26.1241L-0.0288138 25.3274L2.94519 23.403L3.46067 24.1996L0.486666 26.1241Z" fill="#E67861"/>
<path d="M14.1181 27.1753L13.6026 26.3787L16.5767 24.4542L17.0921 25.2508L14.1181 27.1753Z" fill="#E67861"/>
<path d="M32.7744 7.95912C32.7676 7.87922 32.7579 7.79989 32.7489 7.72056C32.7324 7.59079 32.712 7.46159 32.6922 7.33296C32.665 7.17769 32.6321 7.02469 32.5953 6.87339C32.5692 6.76516 32.5443 6.65692 32.5131 6.54926L32.5075 6.53226C32.4474 6.32826 32.3766 6.12879 32.2995 5.93216C32.2887 5.90496 32.2802 5.87549 32.2689 5.84886C32.1856 5.64372 32.0921 5.44426 31.9912 5.24819C31.9833 5.23232 31.9765 5.21532 31.968 5.19946C31.8615 4.99659 31.7459 4.80279 31.6218 4.60899C31.6155 4.59992 31.6104 4.59029 31.6042 4.58066C31.4812 4.39366 31.3498 4.21346 31.2109 4.03836C31.1968 4.02306 31.1871 4.00776 31.1758 3.99416C31.0477 3.83549 30.9117 3.68419 30.7718 3.53686C30.744 3.50796 30.7191 3.47679 30.6907 3.44846C30.5717 3.32719 30.4454 3.21386 30.3179 3.10109C30.2612 3.05179 30.2102 2.99909 30.153 2.95092C30.0532 2.86762 29.9473 2.79282 29.8436 2.71462C29.7529 2.64662 29.6656 2.57522 29.5721 2.51176C29.49 2.45509 29.4021 2.40749 29.3188 2.35536C29.2055 2.28566 29.099 2.21199 28.9839 2.14909C28.9754 2.14399 28.9664 2.14059 28.9579 2.13606C28.9125 2.11112 28.8638 2.09129 28.8179 2.06749C28.6558 1.98362 28.4926 1.90146 28.3249 1.83006C28.2541 1.79946 28.1793 1.77339 28.1067 1.74732C27.9594 1.69066 27.8132 1.63399 27.6625 1.58469C27.5769 1.55749 27.4885 1.53766 27.4012 1.51386C27.2601 1.47476 27.1179 1.43452 26.9751 1.40392C26.8776 1.38296 26.7779 1.36992 26.6793 1.35292C26.5433 1.33026 26.4079 1.30589 26.2707 1.29059C26.1574 1.27756 26.0401 1.27302 25.9245 1.26509C25.8089 1.25716 25.6825 1.24866 25.5601 1.24696C25.5205 1.24696 25.4814 1.24072 25.4411 1.24072C25.3335 1.24072 25.2281 1.25206 25.1215 1.25716C25.0365 1.26112 24.9515 1.26282 24.866 1.26962C24.6778 1.28436 24.4931 1.30816 24.3095 1.33706C24.2681 1.34329 24.2268 1.34839 24.1848 1.35576C23.971 1.39351 23.7606 1.43998 23.5536 1.49516C23.54 1.49856 23.5264 1.50026 23.5133 1.50366L23.4935 1.50989C23.2722 1.57109 23.0553 1.64214 22.843 1.72296L22.7863 1.74222C22.574 1.82496 22.3662 1.91697 22.163 2.01819C22.1454 2.02726 22.1278 2.03462 22.1108 2.04369C21.9119 2.14456 21.7193 2.25506 21.5317 2.37292C21.5102 2.38652 21.4886 2.39842 21.4677 2.41202C21.2909 2.52536 21.1203 2.64776 20.9543 2.77582C20.9237 2.79962 20.8914 2.82116 20.8613 2.84552C20.7129 2.96339 20.5712 3.08919 20.4329 3.21782C20.3887 3.25862 20.3434 3.29659 20.3009 3.33796C20.1842 3.45129 20.0742 3.57256 19.9649 3.69382C19.9082 3.75729 19.8515 3.81736 19.7949 3.88196C19.7076 3.98622 19.6249 4.09672 19.5461 4.20552C19.4804 4.29279 19.4112 4.37552 19.3495 4.46846C19.2809 4.56819 19.2214 4.67416 19.1579 4.77786C19.0945 4.88156 19.0355 4.96486 18.9817 5.06119C18.9777 5.06856 18.9749 5.07649 18.9709 5.08329C18.8395 5.32674 18.7218 5.57742 18.6185 5.83412C18.5896 5.90496 18.5663 5.97636 18.5397 6.04776C18.4666 6.24552 18.4009 6.44442 18.3442 6.65182C18.3221 6.73286 18.3011 6.81332 18.2813 6.89492C18.2326 7.10119 18.1935 7.31029 18.1617 7.52222C18.1504 7.59759 18.1362 7.67182 18.1277 7.74889C18.0931 8.03357 18.0752 8.32002 18.0739 8.60682C18.0739 8.82272 18.0869 9.03862 18.1068 9.25452C18.1136 9.33442 18.1232 9.41376 18.1323 9.49309C18.1487 9.62286 18.1691 9.75206 18.1889 9.88069C18.2161 10.036 18.249 10.189 18.2858 10.3403C18.3119 10.4485 18.3368 10.5567 18.368 10.6644L18.3737 10.6814C18.4343 10.886 18.5051 11.086 18.5822 11.2826C18.5924 11.3098 18.6009 11.3393 18.6117 11.3642C18.6955 11.5705 18.7896 11.7717 18.891 11.9683C18.899 11.983 18.9052 11.9983 18.9126 12.0131C19.0202 12.2178 19.1368 12.4163 19.2622 12.6086C19.2673 12.6166 19.2713 12.6245 19.2764 12.6319C19.4005 12.8211 19.5336 13.0036 19.673 13.181C19.6827 13.1929 19.6912 13.2053 19.7008 13.2172C19.83 13.3782 19.9683 13.5317 20.1111 13.6813C20.136 13.708 20.1592 13.738 20.1853 13.7629C20.3066 13.887 20.4358 14.0026 20.5661 14.1177C20.6188 14.1647 20.6687 14.2151 20.7231 14.2605C20.8256 14.3466 20.9356 14.4242 21.0432 14.5047C21.1299 14.5699 21.2132 14.639 21.3039 14.7002C21.3946 14.7614 21.479 14.8079 21.5663 14.8623C21.6751 14.9297 21.781 15.0017 21.8932 15.0634C21.9006 15.0674 21.9085 15.0702 21.9153 15.0742C22.1588 15.2057 22.4095 15.3234 22.6662 15.4267C22.737 15.4556 22.8084 15.4788 22.8798 15.5054C23.0776 15.5785 23.2765 15.6443 23.4839 15.7009C23.5649 15.723 23.6454 15.744 23.727 15.7638C23.9332 15.8126 24.1423 15.8517 24.3543 15.8834C24.4296 15.8947 24.5039 15.9089 24.5809 15.9174C24.8661 15.9528 25.1532 15.9716 25.4406 15.9735C25.6565 15.9735 25.8724 15.9605 26.0883 15.9406C26.1682 15.9338 26.2475 15.9242 26.3268 15.9151C26.4566 15.8987 26.5858 15.8783 26.7144 15.8585C26.8697 15.8313 27.0227 15.7984 27.174 15.7616C27.2817 15.7355 27.3899 15.7111 27.497 15.68L27.514 15.6743C27.718 15.6142 27.9175 15.5434 28.1141 15.4663C28.1413 15.4556 28.1708 15.4471 28.1974 15.4357C28.402 15.353 28.6014 15.2595 28.7964 15.1592L28.8468 15.1348C29.0485 15.0286 29.2443 14.9138 29.4339 14.7903C29.4446 14.7835 29.4554 14.7778 29.4662 14.7705C29.6515 14.6492 29.8294 14.5189 30.0028 14.3817C30.0187 14.3687 30.0362 14.3574 30.0521 14.3443C30.2079 14.2191 30.3558 14.0854 30.5003 13.9477C30.5326 13.9176 30.5666 13.891 30.5984 13.8587C30.7157 13.7454 30.825 13.6201 30.935 13.4972C30.9882 13.4405 31.0443 13.3838 31.0953 13.3209C31.1741 13.2263 31.2455 13.1254 31.322 13.0268C31.3985 12.9282 31.4693 12.8387 31.5368 12.7395C31.5861 12.667 31.6286 12.5899 31.6756 12.5129C31.751 12.3927 31.8309 12.2749 31.9023 12.1496C31.9062 12.1423 31.9091 12.1343 31.913 12.127C32.0444 11.8839 32.1619 11.6336 32.2649 11.3773C32.2938 11.3064 32.3171 11.2345 32.3437 11.1631C32.4193 10.9655 32.4844 10.7641 32.5392 10.559C32.5613 10.478 32.5823 10.3981 32.6021 10.3165C32.6508 10.1102 32.6899 9.90052 32.7217 9.68802C32.733 9.61322 32.7472 9.53956 32.7557 9.46419C32.7895 9.17965 32.8067 8.89334 32.8072 8.60682C32.8072 8.39092 32.7942 8.17502 32.7744 7.95912ZM28.8638 5.95766C28.8893 5.92536 28.9103 5.89022 28.9341 5.85679C28.9737 5.80012 29.0151 5.74799 29.0474 5.69019C29.0718 5.65109 29.0916 5.60916 29.1137 5.56836C29.1437 5.51169 29.1755 5.46126 29.2015 5.40516C29.2219 5.36152 29.2378 5.31619 29.2554 5.27199C29.2786 5.21532 29.303 5.16149 29.3222 5.10199C29.3375 5.05722 29.3477 5.01019 29.3608 4.96429C29.3772 4.90762 29.3953 4.85096 29.4084 4.78976C29.4186 4.74272 29.4237 4.69512 29.431 4.64809C29.4412 4.58859 29.4526 4.52966 29.4582 4.46959C29.4628 4.42086 29.4628 4.37269 29.465 4.32396C29.4679 4.26389 29.4724 4.20439 29.4713 4.14376C29.4713 4.09502 29.4645 4.04572 29.4611 3.99642C29.4577 3.94712 29.4571 3.89329 29.4503 3.84172C29.4673 3.85589 29.4826 3.87176 29.499 3.88649C29.6761 4.03949 29.8442 4.20241 30.0028 4.37439C30.0351 4.40896 30.0663 4.44352 30.0974 4.47866C30.4505 4.87653 30.7517 5.31754 30.9939 5.79106C31.0064 5.81599 31.0177 5.84149 31.0302 5.86642C31.1405 6.08997 31.2369 6.32011 31.3192 6.55549C31.3254 6.57079 31.3339 6.58552 31.3367 6.60139L31.3356 6.60876L30.7672 7.36016C30.4453 7.78721 29.942 8.03881 29.4072 8.04016H27.0442C27.0346 8.01296 27.0221 7.98746 27.0114 7.96082L27 7.93362C26.9915 7.91379 26.9847 7.89339 26.9751 7.87356L28.6462 6.20246C28.7233 6.12511 28.796 6.04337 28.8638 5.95766ZM25.3136 2.37972C25.4757 2.37632 25.6372 2.37972 25.7981 2.39162C25.8792 2.39616 25.9613 2.39616 26.0418 2.40409C26.2685 2.42527 26.4939 2.45934 26.7167 2.50609C26.7768 2.51856 26.8346 2.53726 26.8941 2.55142C27.0641 2.59279 27.2341 2.63812 27.3995 2.69366C27.476 2.71916 27.5503 2.75032 27.6262 2.77639C27.7732 2.83157 27.918 2.8922 28.0608 2.95829C28.105 2.97869 28.1487 3.00022 28.1929 3.02176L28.3266 3.95902C28.4011 4.4885 28.2233 5.0223 27.8461 5.40119L26.175 7.07229C26.1551 7.06266 26.1347 7.05586 26.1149 7.04736L26.0877 7.03602C26.0611 7.02526 26.0356 7.01279 26.0084 7.00316V4.33982C26.0069 4.17457 25.9909 4.00981 25.9608 3.84739C25.9528 3.80206 25.9426 3.75729 25.9324 3.71252C25.9047 3.5892 25.8688 3.46779 25.8248 3.34929C25.8112 3.31246 25.8004 3.27562 25.7857 3.23992C25.7244 3.09372 25.651 2.95291 25.5664 2.81889C25.5482 2.79112 25.5267 2.76562 25.5097 2.73786C25.4367 2.63175 25.3564 2.53081 25.2694 2.43582C25.2547 2.41939 25.2434 2.39956 25.2281 2.38312C25.2547 2.38312 25.2842 2.38029 25.3136 2.37972ZM20.7174 4.55062V4.55176C20.8829 4.36051 21.0599 4.17939 21.2472 4.00946C21.2767 3.98282 21.3039 3.95279 21.3351 3.92956C21.7648 3.55294 22.2439 3.23666 22.7591 2.98946L22.7857 2.97699C23.0511 2.85098 23.3251 2.74416 23.6057 2.65739L23.9344 2.82172C24.5115 3.10768 24.8759 3.69687 24.8739 4.34096V7.00429C24.8467 7.01392 24.8212 7.02639 24.7946 7.03716L24.7674 7.04849C24.7475 7.05699 24.7271 7.06379 24.7073 7.07342L23.0362 5.40232C22.914 5.2829 22.7813 5.17481 22.6395 5.07932C22.6174 5.06402 22.5959 5.04816 22.5732 5.03342C22.4367 4.94559 22.2927 4.8698 22.1431 4.80676C22.1176 4.79599 22.0921 4.78636 22.0661 4.77616C21.911 4.71396 21.7508 4.66544 21.5872 4.63109L21.5606 4.62712C21.3982 4.59688 21.2334 4.58073 21.0682 4.57896C21.0546 4.57896 21.041 4.57442 21.0268 4.57442C21.0126 4.57442 21.0081 4.57442 20.999 4.57442C20.9259 4.57442 20.8528 4.58122 20.7797 4.58802C20.7452 4.58802 20.7106 4.58802 20.676 4.59482C20.6908 4.57896 20.7044 4.56536 20.7174 4.55062ZM19.3336 9.02446V9.02842C19.3007 9.06639 19.265 9.10266 19.2344 9.14176C19.2191 8.96269 19.2072 8.78646 19.2072 8.60682C19.2079 8.37959 19.2209 8.15264 19.2463 7.92682C19.2526 7.87016 19.2645 7.81349 19.2718 7.76022C19.2956 7.59022 19.3223 7.42022 19.3597 7.25646C19.3744 7.18846 19.3942 7.12272 19.4112 7.05529C19.4498 6.90626 19.4923 6.75836 19.5416 6.61216C19.5671 6.53622 19.5954 6.46142 19.6243 6.38549C19.6742 6.25459 19.7291 6.12539 19.7881 5.99789C19.8096 5.95086 19.8328 5.90382 19.8555 5.85736L20.7928 5.72362C21.3223 5.64854 21.8563 5.82647 22.2349 6.20416L23.906 7.87526C23.897 7.89452 23.8902 7.91492 23.8817 7.93192L23.8692 7.96139C23.8584 7.98746 23.846 8.01296 23.8369 8.03959H21.4739C21.3645 8.03973 21.2551 8.04618 21.1464 8.05886C21.1084 8.06339 21.0716 8.07302 21.033 8.07869C20.9633 8.09002 20.8931 8.09966 20.8245 8.11609C20.782 8.12629 20.7406 8.14102 20.6981 8.15349C20.6364 8.17106 20.574 8.18692 20.514 8.21016C20.4703 8.22602 20.4284 8.24642 20.3859 8.26682C20.3292 8.29062 20.2726 8.31216 20.2159 8.33992C20.1723 8.36146 20.1315 8.38752 20.089 8.41132C20.0374 8.44022 19.9847 8.46799 19.9348 8.49972C19.885 8.53146 19.8538 8.55639 19.813 8.58756C19.7722 8.61872 19.7178 8.65386 19.6725 8.69126C19.6271 8.72866 19.5982 8.75869 19.5591 8.79269C19.52 8.82669 19.4719 8.87032 19.4316 8.91226C19.3914 8.95419 19.367 8.98592 19.3336 9.02446ZM22.0168 11.2566V11.2605C21.9958 11.2872 21.9788 11.3172 21.9601 11.3433C21.9159 11.4039 21.8706 11.464 21.8315 11.528C21.8105 11.5614 21.7941 11.5977 21.7748 11.6323C21.7414 11.6889 21.7062 11.7513 21.6773 11.813C21.6586 11.8527 21.645 11.8935 21.6286 11.9337C21.6037 11.9932 21.5776 12.0527 21.5566 12.1139C21.5425 12.1564 21.5328 12.2001 21.5209 12.2431C21.5034 12.3038 21.4841 12.3638 21.4711 12.4262C21.4614 12.4715 21.4563 12.5174 21.449 12.5633C21.4388 12.6239 21.4274 12.6846 21.4212 12.7463C21.4167 12.7939 21.4167 12.8421 21.4144 12.8903C21.4144 12.9509 21.407 13.011 21.4082 13.071C21.4082 13.1209 21.415 13.1702 21.4184 13.2201C21.4218 13.2699 21.4223 13.3226 21.4291 13.3736C21.4138 13.3606 21.3997 13.3464 21.3849 13.3334C21.2057 13.1781 21.0355 13.0127 20.8749 12.8381C20.8443 12.8053 20.8137 12.7718 20.7837 12.7384C20.4312 12.3401 20.1304 11.8989 19.8884 11.4254C19.8759 11.4016 19.8646 11.3767 19.8527 11.3523C19.7424 11.1283 19.6456 10.8978 19.5631 10.6621C19.5574 10.6468 19.5512 10.6321 19.5461 10.6162L20.1139 9.85349C20.436 9.42658 20.9392 9.17498 21.4739 9.17349H23.8369C23.846 9.20012 23.8584 9.22562 23.8692 9.25169L23.8817 9.28116C23.8902 9.30042 23.897 9.32082 23.906 9.33782L22.2349 11.0089C22.1575 11.0873 22.0847 11.1699 22.0168 11.2566ZM25.8712 14.8181L25.8701 14.822C25.6614 14.837 25.452 14.841 25.2428 14.8339C25.1635 14.8339 25.0836 14.8277 25.0048 14.822C24.8019 14.8081 24.6002 14.7841 24.3996 14.7501C24.3497 14.7416 24.2987 14.737 24.2494 14.7274C24.0002 14.6787 23.7542 14.6147 23.5128 14.5359C23.4623 14.5194 23.4142 14.499 23.3643 14.4792C23.1754 14.412 22.9892 14.3355 22.8056 14.2497C22.7659 14.2316 22.7274 14.2129 22.6883 14.193L22.5557 13.2535C22.4811 12.724 22.659 12.1902 23.0362 11.8113L24.7073 10.1402C24.7271 10.1499 24.7475 10.1567 24.7679 10.1657L24.7946 10.1765C24.8206 10.1873 24.8467 10.1997 24.8739 10.2094V12.5735C24.8741 12.6829 24.8805 12.7923 24.8932 12.901C24.8977 12.9396 24.9073 12.9764 24.913 13.0144C24.9243 13.0841 24.934 13.1538 24.9504 13.2223C24.9606 13.266 24.9759 13.3079 24.9884 13.351C25.0059 13.4122 25.0218 13.4734 25.045 13.5334C25.0609 13.5771 25.0819 13.619 25.1017 13.6626C25.1255 13.7193 25.1476 13.776 25.1748 13.8326C25.1963 13.8763 25.2224 13.9171 25.2462 13.9596C25.2751 14.0111 25.3029 14.0644 25.3346 14.1143C25.3663 14.1641 25.3913 14.1959 25.423 14.2367C25.4547 14.2775 25.4893 14.3313 25.5256 14.3761C25.5618 14.4208 25.5941 14.4514 25.6287 14.4894C25.6633 14.5274 25.7052 14.5761 25.7471 14.6163C25.7891 14.6566 25.8236 14.6832 25.8605 14.7166C25.8973 14.7501 25.9347 14.7846 25.9738 14.8152C25.9392 14.8158 25.9047 14.8158 25.8712 14.8181ZM25.963 8.82726C25.9435 8.86388 25.9203 8.89844 25.8939 8.93039C25.8576 8.98082 25.8134 9.02502 25.763 9.06129C25.7311 9.08771 25.6965 9.11087 25.6599 9.13042C25.5196 9.18929 25.3615 9.18929 25.2213 9.13042C25.1847 9.11087 25.1501 9.08771 25.1181 9.06129C25.0716 9.02835 25.0305 8.9884 24.9963 8.94286C24.9658 8.90836 24.9396 8.87032 24.9181 8.82952C24.8592 8.68927 24.8592 8.53117 24.9181 8.39092C24.9391 8.34821 24.9654 8.30819 24.9963 8.27192V8.27306C25.0305 8.22751 25.0716 8.18756 25.1181 8.15462C25.1501 8.1282 25.1847 8.10504 25.2213 8.08549C25.3615 8.02663 25.5196 8.02663 25.6599 8.08549C25.6965 8.10504 25.7311 8.1282 25.763 8.15462C25.8134 8.19089 25.8576 8.23509 25.8939 8.28552C25.9203 8.31747 25.9435 8.35204 25.963 8.38866C26.0219 8.52891 26.0219 8.68701 25.963 8.82726ZM30.1586 12.6681L30.1575 12.6721C30.0045 12.8491 29.8416 13.0173 29.6696 13.1759C29.635 13.2082 29.6005 13.2393 29.5653 13.2705C29.1681 13.6209 28.7283 13.9198 28.2563 14.1602L28.181 14.1964C27.9574 14.3067 27.7273 14.4032 27.4919 14.4854C27.4766 14.4911 27.4619 14.4973 27.446 14.5024L26.6872 13.9335C26.2602 13.6116 26.0086 13.1083 26.0072 12.5735V10.2105C26.0344 10.2009 26.0599 10.1884 26.0866 10.1776L26.1138 10.1663C26.1336 10.1578 26.154 10.151 26.1738 10.1414L27.8449 11.8125C27.9671 11.9322 28.0999 12.0407 28.2416 12.1366L28.3039 12.1802C28.4405 12.2681 28.5844 12.3439 28.734 12.4069C28.7601 12.4182 28.7856 12.4284 28.8117 12.4386C28.9648 12.4997 29.1229 12.5475 29.2843 12.5814C29.3007 12.5848 29.3177 12.5865 29.3341 12.5894C29.4978 12.6205 29.6639 12.637 29.8305 12.6387C29.8385 12.6387 29.8458 12.6387 29.8532 12.6387H29.8634C29.9771 12.6385 30.0906 12.6313 30.2034 12.6171C30.1892 12.6364 30.1734 12.6517 30.1586 12.6681ZM31.6337 9.29362C31.6274 9.35029 31.6155 9.40696 31.6076 9.46362C31.5844 9.63362 31.5577 9.79852 31.5209 9.96342C31.5056 10.0326 31.4858 10.1 31.4682 10.168C31.4297 10.3159 31.3883 10.4627 31.339 10.6072C31.3129 10.6842 31.2823 10.7602 31.2551 10.8338C31.2053 10.9642 31.1509 11.0922 31.0925 11.2192C31.0704 11.2668 31.0472 11.3132 31.0245 11.3603L30.0872 11.494C29.5578 11.5682 29.0242 11.3904 28.6451 11.0135L26.974 9.34236C26.9836 9.32252 26.9904 9.30212 26.9989 9.28229L27.0102 9.25509C27.021 9.22846 27.0335 9.20296 27.0431 9.17576H29.4072C29.5167 9.17562 29.626 9.16917 29.7348 9.15649C29.7733 9.15196 29.8101 9.14232 29.8481 9.13666C29.9178 9.12532 29.9875 9.11569 30.0561 9.09926C30.0997 9.08906 30.1416 9.07376 30.1847 9.06129C30.2459 9.04372 30.3071 9.02786 30.3672 9.00462C30.4108 8.98876 30.4527 8.96779 30.4964 8.94796C30.553 8.92416 30.6097 8.90206 30.6664 8.87486C30.71 8.85332 30.7508 8.82726 30.7933 8.80346C30.8449 8.77456 30.8981 8.74679 30.948 8.71506C30.9979 8.68332 31.0296 8.65839 31.0704 8.62666C31.1112 8.59492 31.165 8.56036 31.2098 8.52409C31.2546 8.48782 31.2852 8.45552 31.3231 8.42096C31.3611 8.38639 31.4098 8.34446 31.4501 8.30252C31.4903 8.26059 31.5147 8.22772 31.5481 8.18919L31.547 8.19542C31.5798 8.15689 31.615 8.12119 31.6456 8.08209C31.6609 8.25776 31.6728 8.43399 31.6728 8.61362C31.6721 8.84086 31.6591 9.06781 31.6337 9.29362Z" fill="#E67861"/>
<path d="M22.2163 1.50695L22.7789 0.782331L25.4841 2.88254L24.9216 3.60716L22.2163 1.50695Z" fill="#E67861"/>
<path d="M25.6062 14.2831L26.1687 13.5585L28.8739 15.6587L28.3114 16.3833L25.6062 14.2831Z" fill="#E67861"/>
<path d="M28.1947 1.2256L29.1049 1.11101L29.5327 4.50897L28.6225 4.62357L28.1947 1.2256Z" fill="#E67861"/>
<path d="M21.5576 12.6567L22.4678 12.5421L22.8956 15.94L21.9854 16.0546L21.5576 12.6567Z" fill="#E67861"/>
<path d="M18.1879 5.93325L18.0733 5.02308L21.4713 4.59527L21.5859 5.50544L18.1879 5.93325Z" fill="#E67861"/>
<path d="M29.619 12.5704L29.5044 11.6602L32.9023 11.2324L33.0169 12.1426L29.619 12.5704Z" fill="#E67861"/>
<path d="M18.4693 11.9116L17.7447 11.3491L19.8449 8.64385L20.5695 9.20641L18.4693 11.9116Z" fill="#E67861"/>
<path d="M31.2454 8.52181L30.5208 7.95925L32.621 5.25402L33.3456 5.81658L31.2454 8.52181Z" fill="#E67861"/>
<path d="M24.7101 0.538062L25.5067 0.0225815L27.4311 2.99659L26.6345 3.51207L24.7101 0.538062Z" fill="#33485D"/>
<path d="M23.6588 14.1695L24.4554 13.654L26.3799 16.6281L25.5833 17.1435L23.6588 14.1695Z" fill="#33485D"/>
<path d="M30.6433 2.30401L31.5711 2.5028L30.8289 5.96654L29.9011 5.76775L30.6433 2.30401Z" fill="#33485D"/>
<path d="M20.261 11.1996L21.1888 11.3984L20.4467 14.8621L19.5189 14.6633L20.261 11.1996Z" fill="#33485D"/>
<path d="M19.2659 3.48477L19.4647 2.55699L22.9284 3.29913L22.7297 4.22692L19.2659 3.48477Z" fill="#33485D"/>
<path d="M28.1615 13.867L28.3603 12.9392L31.824 13.6814L31.6252 14.6091L28.1615 13.867Z" fill="#33485D"/>
<path d="M17.5 9.418L16.9845 8.62139L19.9585 6.69693L20.474 7.49354L17.5 9.418Z" fill="#33485D"/>
<path d="M31.1314 10.4692L30.616 9.67261L33.59 7.74815L34.1055 8.54475L31.1314 10.4692Z" fill="#33485D"/>
</g>
<defs>
<clipPath id="clip0_424_1138">
<rect width="34" height="34" fill="white"/>
</clipPath>
</defs>
</svg>
