<svg width="18" height="19" viewBox="0 0 18 19" fill="none" xmlns="http://www.w3.org/2000/svg">
<g clip-path="url(#clip0_1_940)">
<path d="M10.2266 2.3281C9.95166 2.60235 9.95113 3.04757 10.2253 3.32249L16.3886 9.50099C16.6627 9.7751 16.6627 10.2212 16.388 10.496L10.2253 16.6738C9.95113 16.9487 9.95166 17.394 10.2266 17.6682C10.5015 17.9425 10.9468 17.9419 11.221 17.667L17.383 11.4898C17.7944 11.0785 18 10.5382 18 9.99799C18 9.45799 17.7945 8.91799 17.3837 8.50719L11.221 2.32936C10.9467 2.0544 10.5015 2.05384 10.2266 2.3281Z" fill="white"/>
<path d="M-3.07361e-08 9.99801C-1.37599e-08 10.3864 0.314789 10.7012 0.70316 10.7012L13.4304 10.7012C13.8187 10.7012 14.1335 10.3864 14.1335 9.99801C14.1335 9.60964 13.8187 9.29485 13.4304 9.29485L0.70316 9.29485C0.314789 9.29485 -4.77108e-08 9.60968 -3.07361e-08 9.99801Z" fill="white"/>
</g>
<defs>
<clipPath id="clip0_1_940">
<rect width="18" height="18" fill="white" transform="translate(0 18.998) rotate(-90)"/>
</clipPath>
</defs>
</svg>
