<svg width="20" height="20" viewBox="0 0 20 20" fill="none" xmlns="http://www.w3.org/2000/svg">
<path d="M10 19C14.9706 19 19 14.9706 19 10C19 5.02944 14.9706 1 10 1C5.02944 1 1 5.02944 1 10C1 14.9706 5.02944 19 10 19Z" stroke="#6A677B" stroke-miterlimit="10" stroke-linecap="round" stroke-linejoin="round"/>
<path d="M10.0006 10.8708C10.4816 10.8708 10.8716 10.4809 10.8716 9.99987C10.8716 9.51885 10.4816 9.12891 10.0006 9.12891C9.51958 9.12891 9.12964 9.51885 9.12964 9.99987C9.12964 10.4809 9.51958 10.8708 10.0006 10.8708Z" stroke="#6A677B" stroke-miterlimit="10" stroke-linecap="round" stroke-linejoin="round"/>
<path d="M7.09741 7.09668L9.12967 9.12894" stroke="#6A677B" stroke-miterlimit="10" stroke-linecap="round" stroke-linejoin="round"/>
<path d="M14.6463 5.35449L10.8721 9.12856" stroke="#6A677B" stroke-miterlimit="10" stroke-linecap="round" stroke-linejoin="round"/>
<path d="M10.0004 3.32227V4.48356" stroke="#6A677B" stroke-miterlimit="10" stroke-linecap="round" stroke-linejoin="round"/>
<path d="M10.0004 15.5156V16.6769" stroke="#6A677B" stroke-miterlimit="10" stroke-linecap="round" stroke-linejoin="round"/>
<path d="M15.5166 10H16.6779" stroke="#6A677B" stroke-miterlimit="10" stroke-linecap="round" stroke-linejoin="round"/>
<path d="M3.32251 10H4.4838" stroke="#6A677B" stroke-miterlimit="10" stroke-linecap="round" stroke-linejoin="round"/>
</svg>
